<?xml version="1.0" encoding="UTF-8" standalone="no"?><svg xmlns:svg="http://www.w3.org/2000/svg" xmlns="http://www.w3.org/2000/svg" xmlns:xlink="http://www.w3.org/1999/xlink" version="1.0" width="213px" height="10px" viewBox="0 0 128 6" xml:space="preserve"><path fill="#c0c0c0" d="M3.034,0.054H8.081A2.973,2.973,0,1,1,8.081,6H3.034A2.973,2.973,0,1,1,3.034.054Zm14.6,0h5.047a2.973,2.973,0,1,1,0,5.946H17.638A2.973,2.973,0,1,1,17.638.054Zm14.6,0h5.047a2.973,2.973,0,1,1,0,5.946H32.242A2.973,2.973,0,1,1,32.242.054Zm14.6,0h5.047a2.973,2.973,0,1,1,0,5.946H46.846A2.973,2.973,0,1,1,46.846.054Zm14.6,0H66.5A2.973,2.973,0,1,1,66.5,6H61.45A2.973,2.973,0,1,1,61.45.054Zm14.6,0H81.1A2.973,2.973,0,1,1,81.1,6H76.054A2.973,2.973,0,1,1,76.054.054Zm14.6,0H95.7A2.973,2.973,0,1,1,95.7,6H90.658A2.973,2.973,0,1,1,90.658.054Zm14.6,0h5.047a2.973,2.973,0,1,1,0,5.946h-5.047A2.973,2.973,0,1,1,105.262.054Zm14.6,0h5.047a2.973,2.973,0,1,1,0,5.946h-5.047A2.973,2.973,0,1,1,119.866.054Z"/><g><path fill="#000000" d="M-26.993,0H-7.235A3,3,0,0,1-4.228,3,3,3,0,0,1-7.235,6H-26.993A3,3,0,0,1-30,3,3,3,0,0,1-26.993,0Z"/><animateTransform attributeName="transform" type="translate" values="16 0;30 0;44.5 0;59 0;74 0;88.5 0;103 0;117.5 0;132 0;147 0;160.5 0" calcMode="discrete" dur="1210ms" repeatCount="indefinite"/></g></svg>
