<svg xmlns="http://www.w3.org/2000/svg" xmlns:xlink="http://www.w3.org/1999/xlink" width="57" height="57" viewBox="0 0 57 57"><defs><linearGradient id="a" x1="0.5" x2="0.5" y2="1" gradientUnits="objectBoundingBox"><stop offset="0" stop-color="#3b5998"/><stop offset="1" stop-color="#1c73e3"/></linearGradient></defs><g transform="translate(-623 162)"><rect width="57" height="57" transform="translate(623 -162)" fill="#fff" opacity="0"/><g transform="translate(620 -165)"><path d="M58,32A26,26,0,0,1,35,57.83,27.008,27.008,0,0,1,32,58,26,26,0,1,1,58,32Z" fill="url(#a)"/><path d="M42.8,36.05l-.76,2A3.04,3.04,0,0,1,39.19,40H35V57.83A27.008,27.008,0,0,1,32,58a25.768,25.768,0,0,1-5-.49V40H24.05A3.02,3.02,0,0,1,21,37V35a3.02,3.02,0,0,1,3.05-3H27V26A10.016,10.016,0,0,1,37,16h3a4,4,0,0,1,0,8H37a2.006,2.006,0,0,0-2,2v6h4.95A3,3,0,0,1,42.8,36.05Z" fill="#fff"/></g></g></svg>