<svg xmlns="http://www.w3.org/2000/svg" xmlns:xlink="http://www.w3.org/1999/xlink" width="57" height="57" viewBox="0 0 57 57"><defs><linearGradient id="a" x1="0.5" x2="0.5" y2="1" gradientUnits="objectBoundingBox"><stop offset="0" stop-color="#41beff"/><stop offset="1" stop-color="#008cd5"/></linearGradient></defs><g transform="translate(-908 162)"><rect width="57" height="57" transform="translate(908 -162)" fill="#fff" opacity="0"/><g transform="translate(905 -167)"><path d="M50,12H14a4,4,0,0,0-4,4V52a4,4,0,0,0,4,4H50a4,4,0,0,0,4-4V16A4,4,0,0,0,50,12Z" fill="url(#a)"/><path d="M19,28h2a2,2,0,0,1,2,2V47a2,2,0,0,1-2,2H19a2,2,0,0,1-2-2V30A2,2,0,0,1,19,28Zm.981-3h-.033A2.872,2.872,0,0,1,17,22a2.887,2.887,0,0,1,3.019-3A2.875,2.875,0,0,1,23,22,2.889,2.889,0,0,1,19.981,25ZM45,49H43a2,2,0,0,1-2-2V37.628C41,34.879,39.494,33,36.761,33a3.838,3.838,0,0,0-3.626,2.485A8.973,8.973,0,0,0,33,37.75V47a1.993,1.993,0,0,1-1.993,2H29a2,2,0,0,1-2-2V30a2,2,0,0,1,2-2h2.007a2,2,0,0,1,2,2v1.021c.9-1.4,2.557-3.021,6.166-3.021C43.646,28,47,30.563,47,36.842V47A2,2,0,0,1,45,49Z" fill="#fff"/></g></g></svg>