<svg xmlns="http://www.w3.org/2000/svg" xmlns:xlink="http://www.w3.org/1999/xlink" width="57" height="57" viewBox="0 0 57 57"><defs><linearGradient id="a" x1="0.5" x2="0.5" y2="1" gradientUnits="objectBoundingBox"><stop offset="0" stop-color="#f70"/><stop offset="1" stop-color="#ff4500"/></linearGradient></defs><g transform="translate(-838 162)"><rect width="57" height="57" transform="translate(838 -162)" fill="#fff" opacity="0"/><g transform="translate(111 -512)"><path d="M58,32A26,26,0,0,1,35,57.83,27.008,27.008,0,0,1,32,58,26,26,0,1,1,58,32Z" transform="translate(724 347)" fill="url(#a)"/><g transform="translate(-78.637 196.884)"><ellipse cx="14.9" cy="10.339" rx="14.9" ry="10.339" transform="translate(818.736 176.643)" fill="#fff"/><path d="M6.4,32.219a4.865,4.865,0,1,1,6.253-7.444" transform="translate(812.412 153.751)" fill="#fff"/><path d="M46.1,24.775a4.865,4.865,0,1,1,6.253,7.444" transform="translate(796.11 153.751)" fill="#fff"/><circle cx="3.041" cy="3.041" r="3.041" transform="translate(842.454 166.912)" fill="#fff"/><path d="M38.273,21.116a5.775,5.775,0,0,0-9.207-4.647,20.3,20.3,0,0,0-7.143-1.7l.362-4.707a1.532,1.532,0,0,1,2.843-.67l.4.666a3.374,3.374,0,0,0,2.878,1.63H29.65a3.989,3.989,0,1,0-1-1.824h-.246a1.54,1.54,0,0,1-1.314-.745l-.4-.666a3.357,3.357,0,0,0-6.226,1.47L20.1,14.74a20.5,20.5,0,0,0-7.888,1.729,5.773,5.773,0,0,0-7.356,8.877c-.016.21-.027.422-.027.635,0,6.2,7.093,11.251,15.812,11.251s15.812-5.047,15.812-11.251c0-.213-.01-.424-.027-.635A5.73,5.73,0,0,0,38.273,21.116ZM32.5,6.824a2.129,2.129,0,1,1-2.129,2.129A2.131,2.131,0,0,1,32.5,6.824ZM4.824,21.116A3.937,3.937,0,0,1,10.3,17.477,11.577,11.577,0,0,0,5.357,23.09,3.927,3.927,0,0,1,4.824,21.116ZM20.637,35.408c-7.713,0-13.988-4.229-13.988-9.426,0-3.129,2.276-5.905,5.768-7.621l.047-.023a18.8,18.8,0,0,1,8.173-1.783,18.8,18.8,0,0,1,8.174,1.784c.015.007.029.015.044.021,3.493,1.716,5.77,4.492,5.77,7.621C34.624,31.179,28.35,35.408,20.637,35.408ZM30.971,17.477a3.944,3.944,0,0,1,4.946,5.613A11.574,11.574,0,0,0,30.971,17.477Z" transform="translate(812.999 161)" fill="#fff"/><path d="M32.679,45.2a7.3,7.3,0,0,1-9.187,0,.912.912,0,0,0-1.14,1.424,9.123,9.123,0,0,0,11.469,0A.912.912,0,1,0,32.679,45.2Z" transform="translate(805.551 145.326)" fill="#ff4500"/><ellipse cx="2.223" cy="2.779" rx="2.223" ry="2.779" transform="translate(825.856 182.672)" fill="#ff4500"/><ellipse cx="2.223" cy="2.779" rx="2.223" ry="2.779" transform="translate(836.971 182.672)" fill="#ff4500"/></g></g></g></svg>