<svg xmlns="http://www.w3.org/2000/svg" xmlns:xlink="http://www.w3.org/1999/xlink" width="57" height="57" viewBox="0 0 57 57"><defs><linearGradient id="a" x1="0.5" y1="1" x2="0.5" gradientUnits="objectBoundingBox"><stop offset="0" stop-color="#0af"/><stop offset="1" stop-color="#2ab8ff"/></linearGradient></defs><g transform="translate(-773 162)"><rect width="57" height="57" transform="translate(773 -162)" fill="#fff" opacity="0"/><g transform="translate(770 -164)"><path d="M57,31A25,25,0,1,1,32,6,25,25,0,0,1,57,31Z" fill="url(#a)"/><path d="M40,23,20,31.146l9.632,2.222L31.854,43Z" fill="#fff"/><path d="M31.854,45c-.053,0-.107,0-.161-.007A2,2,0,0,1,29.9,43.449l-1.941-8.413L19.549,33.1a2,2,0,0,1-.305-3.8l20-8.146a2,2,0,0,1,2.606,2.607l-8.146,20A2,2,0,0,1,31.854,45ZM26.6,30.617l3.479.8a2,2,0,0,1,1.5,1.5l.8,3.479,3.973-9.754Z" fill="#fff"/></g></g></svg>