<svg xmlns="http://www.w3.org/2000/svg" xmlns:xlink="http://www.w3.org/1999/xlink" width="57" height="57" viewBox="0 0 57 57"><defs><linearGradient id="a" x1="0.5" x2="0.5" y2="1" gradientUnits="objectBoundingBox"><stop offset="0" stop-color="#00d4ff"/><stop offset="1" stop-color="#1da1f2"/></linearGradient></defs><g transform="translate(-700 162)"><rect width="57" height="57" transform="translate(700 -162)" fill="#fff" opacity="0"/><g transform="translate(-132 -12)"><path d="M57,31A25,25,0,1,1,32,6,25,25,0,0,1,57,31Z" transform="translate(829 -152)" fill="url(#a)"/><g transform="translate(841 -146)"><path d="M36.533,16.989a12.944,12.944,0,0,1-2.74.565,6.061,6.061,0,0,0,2.234-2.033.589.589,0,0,0-.739-.868,11,11,0,0,1-3.081,1.017,6.47,6.47,0,0,0-10.725,6A15.688,15.688,0,0,1,9.39,15.422a.59.59,0,0,0-1.026.138,6.228,6.228,0,0,0-.591,2.576c0,.071,0,.136.006.2a5.733,5.733,0,0,0,.49,2.163,5.89,5.89,0,0,0,2.819,2.943c-.118.006-.236.012-.36.012a5.777,5.777,0,0,1-2.212-.571.59.59,0,0,0-.737.644A6.517,6.517,0,0,0,9.569,27.1a5.865,5.865,0,0,0,3.753,1.661,5.853,5.853,0,0,1-2.594.6h-.591a.6.6,0,0,0-.524.871,6.42,6.42,0,0,0,5.745,3.26,15.277,15.277,0,0,1-8.176,2.37H6.591A.591.591,0,0,0,6,36.456a.583.583,0,0,0,.434.559v.01a28.786,28.786,0,0,0,9.614,1.795A18.315,18.315,0,0,0,34.36,20.837c.006-.112.006-.225.006-.337s0-.225-.006-.337c-.008-.163-.028-.322-.048-.482a6.709,6.709,0,0,0,2.843-1.729A.591.591,0,0,0,36.533,16.989Z" fill="#fff"/></g></g></g></svg>