<svg xmlns="http://www.w3.org/2000/svg" xmlns:xlink="http://www.w3.org/1999/xlink" width="57" height="57" viewBox="0 0 57 57"><defs><linearGradient id="a" x1="0.5" x2="0.5" y2="1" gradientUnits="objectBoundingBox"><stop offset="0" stop-color="#00d772"/><stop offset="1" stop-color="#00b26e"/></linearGradient></defs><g transform="translate(-497 162)"><rect width="57" height="57" transform="translate(497 -162)" fill="#fff" opacity="0"/><g transform="translate(495.954 -165)"><path d="M.082,45.124,3.2,33.274A23.189,23.189,0,1,1,15.628,44.751l-12.6,3.317a2.447,2.447,0,0,1-.624.082A2.412,2.412,0,0,1,.082,45.124Z" transform="translate(6.046 7)" fill="url(#a)"/><path d="M26.028,21.185c-.509-1.127-1.045-1.15-1.531-1.17C24.1,20,23.647,20,23.195,20a2.508,2.508,0,0,0-1.814.847A7.569,7.569,0,0,0,19,26.492c0,3.33,2.436,6.548,2.777,7s4.7,7.5,11.617,10.217c5.743,2.255,6.913,1.806,8.161,1.693s4.024-1.636,4.59-3.217a5.641,5.641,0,0,0,.4-3.217c-.17-.283-.624-.451-1.3-.791-.314-.156-2.049-1.009-3.951-1.927a2.124,2.124,0,0,0-2.557.552c-.257.308-.753.9-1.306,1.562a2.129,2.129,0,0,1-2.567.545,22.623,22.623,0,0,1-4.891-3.131,24.2,24.2,0,0,1-3.232-3.945,2.128,2.128,0,0,1,.18-2.646c.3-.324.6-.652.813-.9a2.123,2.123,0,0,0,.355-2.183C27.466,24.593,26.439,22.1,26.028,21.185Z" transform="translate(-2.72 -2.587)" fill="#fff" fill-rule="evenodd"/></g></g></svg>