<?xml version="1.0" encoding="UTF-8"?><svg id="Layer_2" xmlns="http://www.w3.org/2000/svg" xmlns:xlink="http://www.w3.org/1999/xlink" viewBox="0 0 354.91 96.41"><defs><clipPath id="clippath"><circle cx="312.58" cy="45.35" r="9.76" style="fill:none;"/></clipPath></defs><g id="Layer_1-2"><path d="M321.9,42.17c-.35,1.09-3.18,8.98-10.79,10.73-.94,.22-1.92,.33-2.9,.33-.56,0-1.12-.04-1.69-.11v.09c.01,.17,.12,.42,.26,.72,.34,.76,.97,2.17,.25,3.79-.8,1.81-2.57,2.34-3.15,2.51-.55,.16-1.11,.25-1.69,.25-1,0-1.9-.25-2.67-.58-1.21,1.12-2.53,1.68-3.95,1.68-1.58,0-2.86-.72-3.84-1.59-1.21,.84-2.34,1.15-2.55,1.2l-.26,.07h-.28c-.2,.02-.38,.02-.56,.02-2.69,0-4.54-.8-5.52-2.38-.67-1.09-.73-2.31-.52-3.31-1.05-.06-2.31-.15-3.69-.24-1.3-.1-2.6-.3-3.87-.61-3.29-.47-7.93-1.84-11.6-5.65-5.9-6.12-5.33-14.46-4.99-19.44,.22-3.27,.74-10.93,6.5-18.13,6.18-7.73,14.54-9.81,17.28-10.5,2.73-.68,5.57-1.02,8.47-1.02,5,0,9.79,1.03,14.23,3.08,3.64,1.68,15.73,8.24,18.73,22.37,1.15,5.44,.74,11.22-1.2,16.72h0Z" style="fill:#181819;"/><path d="M314.03,39.6c-4.91-6.83-12.79-11.62-19.17-11.64h-.1c-11.81,0-16.56,8.09-20.74,15.23-1.76,3-3.58,6.1-5.87,8.63-12.63,13.97-32.38,16.48-40.82,16.9-.17,0-.34,.02-.5,.03-.38,.02-.74,.1-1.07,.25-.24,.12-.47,.26-.67,.43h-.01c-.11,.11-.21,.21-.29,.32-.07,.07-.12,.14-.17,.22-.05,.06-.09,.12-.13,.19-.04,.08-.08,.16-.11,.24l.1,.17,1.5-.67,.09,3.44-1.28,.07c.06,.07,.12,.13,.18,.18,.06,.07,.13,.13,.2,.18,.15,.12,.32,.23,.49,.32h.01c.15,.08,.3,.14,.45,.18,.3,.1,.62,.15,.95,.14,.22,0,.44-.02,.67-.03l1.14-.07c.15-.01,.3-.02,.45-.03,9.93-.72,29.79-4.04,43.02-18.66,2.68-2.96,4.65-6.32,6.55-9.57,4.08-6.94,7.3-12.43,15.86-12.43h.08c4.6,.02,10.73,3.92,14.59,9.29,2.06,2.87,5.21,8.66,3.06,15.13-1.97,5.94-6.39,11.18-11.17,14.89-2.3-5.1-6.76-8.68-11.9-8.98-.06-.01-5.84-.3-9.36,3.37-2.53,2.65-3.31,6.57-1.99,10.01,1.83,4.77,6.36,6.6,8.5,6.9,3.06,.43,6.81-.38,10.66-2.14,2.11,3.36,1.15,7.07-5.39,11.58-.89,.62-1.24,.75-1.58,1.39h0c-.38,.74,.33,1.55,1.12,1.29,6.95-2.29,12.27-8.65,11.6-16.11-.04-.48-.05-.95-.09-1.41,6.45-4.46,12.39-11.27,14.97-19.02,2.18-6.56,.81-13.74-3.84-20.22Zm-26.66,39.03s-2.94-.53-4.02-3.33c-.52-1.38-.2-3.01,.81-4.06,1.23-1.29,3.76-1.64,4.75-1.64h.18c2.94,.18,6.02,2.55,7.44,6.49-3.5,1.91-6.83,2.87-9.16,2.54Z" style="fill:#2196f3;"/><path d="M320.5,26c-2.9-13.64-15.33-19.62-17.24-20.5-4.79-2.21-9.39-2.84-13.12-2.84h0c-3.66,0-6.48,.61-7.82,.94-2.96,.74-10.35,2.7-15.85,9.58-5.12,6.4-5.7,13.24-5.93,16.65-.33,4.86-.83,12.15,4.25,17.41,3.49,3.62,7.97,4.58,10.19,4.89,.78,.19,2.02,.45,3.56,.56,3.76,.27,6.66,.42,6.66,.42,0,0,.09,.98-.39,2.55,0,0-1.48,2.96,3.27,2.96h.46s2.36-.59,3.34-2.75c0,0,1.48,3.06,3.69,3.06,1,0,2.15-.64,3.38-2.48,.21,.18,1.6,1.37,3.24,1.37,.31,0,.62-.04,.93-.13,.36-.11,1.18-.36,1.48-1.04,.43-.98-.66-1.82-.74-3.29-.03-.73,.17-1.82,1.38-3.19,.79,.21,1.81,.4,2.97,.4,.72,0,1.5-.07,2.31-.26,6.33-1.46,8.69-8.43,8.87-8.99,.98-2.78,2.56-8.5,1.11-15.32Zm-32.22,9.06c-.34,5.97-4.08,10.67-8.64,10.67-4.79,0-8.67-5.18-8.67-11.56,0-3.71,1.31-7.02,3.36-9.13,1.47-1.52,3.31-2.43,5.31-2.43,4.79,0,8.67,5.18,8.67,11.56,0,.3-.01,.6-.03,.89Zm13.11-2.21c.82-3.29,2.94-5.62,5.41-5.62,.93,0,1.8,.33,2.58,.92,0,0,0,0,.02,0,1.89,1.43,3.18,4.36,3.18,7.74,0,4.79-2.59,8.67-5.78,8.67s-5.78-3.88-5.78-8.67c0-1.06,.13-2.08,.36-3.02,0-.01,0-.02,0-.03Z" style="fill:#e8eeef;"/><path d="M288.31,35.95c0,6.9-4.21,12.5-9.4,12.5s-9.4-5.6-9.4-12.5c0-4.7,1.94-8.78,4.82-10.91-2.05,2.11-3.36,5.42-3.36,9.13,0,6.38,3.88,11.56,8.67,11.56s8.3-4.7,8.64-10.67c.02,.29,.03,.59,.03,.89Z" style="fill:#a9bdc0;"/><path d="M314.16,37.58c0,5.46-3.05,9.88-6.8,9.88s-6.8-4.42-6.8-9.88c0-1.71,.3-3.31,.82-4.7-.23,.94-.36,1.96-.36,3.02,0,4.79,2.59,8.67,5.78,8.67s5.78-3.88,5.78-8.67c0-3.38-1.29-6.31-3.18-7.74,2.76,1.26,4.76,5,4.76,9.42Z" style="fill:#a9bdc0;"/><path d="M295.95,42.24c.41,.4,1.01,1.01,1.65,1.83,1.3,1.64,2.12,2.68,1.88,3.8-.14,.66-.69,1.43-1.49,1.56-.76,.12-1.6-.35-2.04-1.2-.47,1.05-1.42,1.61-2.22,1.46-.91-.19-1.35-1.26-1.45-1.95-.23-1.58,1.07-2.98,2.11-4.1,.59-.64,1.15-1.09,1.56-1.4Z" style="fill:#a9bdc0;"/><path d="M8.15,50.71L0,6.71H8.15l4.43,23.99L17.93,6.71h6.52l5.35,23.99,4.43-23.99h8.15l-8.15,44h-8.15l-4.89-26.4-4.89,26.4s-8.15,0-8.15,0Z" style="fill:#181819;"/><path d="M72.54,6.71V14.71h-18v10h15v8h-15v10h18v8h-26V6.71h26Z" style="fill:#181819;"/><path d="M89.11,6.63c9.18-.23,13.78,4.13,13.78,13.08h-8.18c0-3.29-1.65-4.92-4.95-4.91-2.65,.01-4.86,2.2-4.87,4.86-.02,3.32,1.63,4.97,4.95,4.96,6.93-.03,12.8,5.22,13.03,12.15,.32,9.35-4.04,14.03-13.07,14.03s-13.09-4.36-13.09-13.09h8.18c0,3.29,1.65,4.92,4.96,4.91,2.65,0,4.85-2.21,4.86-4.86,.02-3.31-1.62-4.96-4.91-4.96-8.95,0-13.31-4.59-13.08-13.78,.17-6.72,5.67-12.23,12.4-12.4h0Z" style="fill:#181819;"/><path d="M107.06,6.71h8v14.01l11.2-14.01h9.6l-16.96,22,16.96,22h-9.6l-11.2-14.01v14.01h-8s0-44,0-44Z" style="fill:#181819;"/><path d="M166.03,6.71V14.71h-18v10h15v8h-15v10h18v8h-26V6.71h26Z" style="fill:#181819;"/><path d="M170.19,6.71h8V42.71h18v8h-26V6.71Z" style="fill:#181819;"/><path d="M226.36,6.71V14.71h-18v10h15v8h-15v10h18v8h-26V6.71h26Z" style="fill:#181819;"/><path d="M256.53,6.71V14.71h-9V50.71h-8V14.71h-9V6.71h26Z" style="fill:#181819;"/><path d="M335.91,24.68v25.03h-8V5.71h8.55l10.45,25.03V5.71h8V49.71h-8.55s-10.45-25.03-10.45-25.03Z" style="fill:#181819;"/><g><path d="M11.57,73.28v7.3h-3.32v-17.92h10.62v3.32h-7.3v3.98h5.97v3.32s-5.97,0-5.97,0Z" style="fill:#2196f3;"/><path d="M31.6,62.66c3.54,0,5.31,1.77,5.31,5.31,0,1.93-.53,3.33-1.58,4.21l2.24,8.4h-3.32l-1.95-7.33c-.23,.02-.46,.03-.7,.03h-1.99v7.3h-3.32v-17.92s5.31,0,5.31,0Zm1.99,5.31c0-1.33-.66-1.99-1.99-1.99h-1.99v3.98h1.99c1.33,0,1.99-.66,1.99-1.99Z" style="fill:#2196f3;"/><path d="M55.62,62.66v3.32h-7.3v3.98h5.97v3.32h-5.97v3.98h7.3v3.32h-10.62v-17.92h10.62Z" style="fill:#2196f3;"/><path d="M71.11,77.92h-4.59l-.69,2.65h-3.45l4.64-17.92h3.58l4.64,17.92h-3.45l-.69-2.65h.01Zm-3.73-3.32h2.87l-1.43-5.55-1.43,5.55h0Z" style="fill:#2196f3;"/><path d="M85.33,72.62v7.96h-3.32v-17.92h3.98l3.32,12.79,3.32-12.79h3.98v17.92h-3.32v-7.96l-2.65,7.96h-2.65l-2.65-7.96h-.01Z" style="fill:#2196f3;"/><path d="M106.69,80.58l-3.32-17.92h3.32l1.8,9.77,2.18-9.77h2.65l2.18,9.77,1.8-9.77h3.32l-3.32,17.92h-3.32l-1.99-10.75-1.99,10.75h-3.31Z" style="fill:#2196f3;"/><path d="M126.72,67.97c0-3.54,1.77-5.31,5.31-5.31s5.31,1.77,5.31,5.31v7.3c0,3.54-1.77,5.31-5.31,5.31s-5.31-1.77-5.31-5.31v-7.3Zm5.31-1.99c-1.33,0-1.99,.66-1.99,1.99v7.3c0,1.33,.66,1.99,1.99,1.99s1.99-.66,1.99-1.99v-7.3c0-1.33-.66-1.99-1.99-1.99Z" style="fill:#2196f3;"/><path d="M150.08,62.66c3.54,0,5.31,1.77,5.31,5.31,0,1.93-.53,3.33-1.58,4.21l2.24,8.4h-3.32l-1.95-7.33c-.23,.02-.46,.03-.7,.03h-1.99v7.3h-3.32v-17.92h5.31Zm1.99,5.31c0-1.33-.66-1.99-1.99-1.99h-1.99v3.98h1.99c1.33,0,1.99-.66,1.99-1.99Z" style="fill:#2196f3;"/><path d="M163.47,62.66h3.32v5.71l4.64-5.71h3.98l-7.03,8.96,7.03,8.96h-3.98l-4.64-5.71v5.71h-3.32v-17.92Z" style="fill:#2196f3;"/></g><path d="M270.9,13.48s8.09-3.99,13.47-3.8c0,0-6.85,1.96-8.1,2.77,0,0,6.41-2.85,15.54-.87s13.92,5.95,13.92,5.95c0,0-2.73-5.61-8.62-7.85,0,0,3.76-1.21,8.62,1.37,0,0-8.8-8.24-23.68-4.34-9.09,2.38-11.14,6.77-11.14,6.77Z" style="fill:#fff;"/><path d="M267,22.99s-.52-11.59,11.4-13.82c0,0,1.67-.07,.56,1.18-.75,.25-1.83,.67-3.02,1.37-.66,.38-3.54,2.14-5.77,5.74-.69,1.12-1.62,2.9-2.18,5.3,0,0-.43,1.38-.98,.23h-.01Z" style="fill:#181819;"/><path d="M295.94,42.24c.35,.33,.86,.84,1.41,1.52,1.11,1.36,1.81,2.23,1.6,3.16-.12,.55-.59,1.19-1.27,1.3-.65,.1-1.36-.29-1.74-1-.4,.87-1.21,1.34-1.89,1.21-.78-.16-1.15-1.05-1.24-1.62-.2-1.31,.91-2.48,1.8-3.41,.5-.53,.98-.91,1.33-1.16Z" style="fill:#181819;"/><g style="clip-path:url(#clippath);"><path d="M188.65,71.62h34.76s29.56,1.19,46.83-17.9c8.14-9,9.84-22.99,24.61-22.93,9.94,.04,24.96,14.2,20.33,28.14s-19.95,23.66-28.21,22.5c-.66-.09-6.16-.86-7.73-4.93-.89-2.3-.37-5.3,1.47-7.22,2.22-2.31,5.44-2.12,6.48-2.06,5.5,.32,12.74,5.33,12.96,13.11,.19,6.59-4.73,12.61-11.64,13.85" style="fill:none; stroke:#2196f3; stroke-linecap:round; stroke-linejoin:round; stroke-width:5.66px;"/></g><g><g><path d="M197.03,70.59c-.08-.22-.26-.37-.53-.47-.27-.09-.61-.13-1.04-.11-.49,.01-.98,.1-1.46,.24-.49,.15-.96,.35-1.42,.61-.47,.27-.93,.58-1.37,.96-.45,.38-.88,.8-1.28,1.27-.48,.56-.82,1.06-1.03,1.48-.22,.43-.3,.78-.25,1.06,.05,.28,.22,.48,.52,.6,.3,.13,.7,.17,1.21,.14,.59-.03,1.17-.15,1.73-.35s1.1-.46,1.61-.79c.5-.32,.96-.69,1.39-1.11,.42-.41,.8-.85,1.13-1.32,.37-.53,.62-.98,.74-1.34,.12-.36,.14-.65,.05-.87Zm-5.95,4.97c-.25,.01-.45,0-.6-.06-.14-.05-.25-.12-.31-.23-.07-.1-.09-.22-.08-.37,.02-.15,.06-.31,.14-.48l5.23-2.15c-.06,.1-.12,.2-.18,.3-.07,.1-.14,.21-.21,.31-.3,.4-.6,.76-.93,1.08-.33,.33-.67,.6-1.01,.84-.34,.23-.69,.41-1.04,.54-.35,.13-.68,.2-1.01,.22Zm.06-2.55c.33-.4,.66-.74,.99-1.04,.33-.29,.65-.54,.97-.73,.32-.2,.63-.35,.94-.45,.3-.1,.6-.16,.88-.17,.21-.01,.38,.01,.52,.05,.13,.04,.23,.1,.3,.18,.07,.08,.11,.18,.11,.3,.01,.12-.01,.25-.06,.39l-5.1,2.06c.06-.1,.13-.19,.21-.29,.08-.1,.16-.2,.24-.3Z" style="fill:#2096f3;"/><path d="M196.02,70.72c-.08-.1-.2-.17-.36-.22-.36-.11-1.01-.06-1.63,.14-.36,.12-.72,.29-1.08,.51-.35,.22-.71,.48-1.06,.79-.35,.31-.69,.67-1.03,1.08l-.25,.3c-.09,.11-.16,.21-.23,.31l-.25,.36,5.92-2.39,.04-.12c.05-.16,.07-.3,.06-.43s-.05-.24-.13-.33Zm-4.59,2.28c.31-.38,.63-.72,.94-1,.3-.27,.6-.5,.89-.68,.27-.16,.54-.29,.79-.38,.26-.08,.49-.13,.73-.14,.18-.01,.32,.01,.43,.04,.11,.04,.19,.09,.25,.15,.06,.07,.09,.16,.09,.26,.01,.07,0,.15-.02,.24l-4.26,1.7,.16-.19Zm-1.48,1.35l-.06,.14c-.08,.19-.13,.37-.15,.53-.02,.16,.01,.31,.08,.43,.08,.12,.21,.21,.38,.27,.18,.06,.41,.09,.71,.07,.37-.02,.78-.11,1.19-.27,.4-.15,.81-.36,1.2-.63,.37-.25,.74-.55,1.09-.9,.34-.33,.66-.71,.96-1.12,.08-.11,.15-.22,.22-.33,.06-.1,.12-.2,.18-.3l.2-.33-6,2.44Zm4.84-1.45c-.29,.38-.59,.73-.9,1.03-.3,.3-.62,.56-.93,.77-.29,.19-.59,.35-.88,.45-.51,.19-1.04,.23-1.31,.14-.12-.04-.21-.11-.27-.19-.05-.09-.07-.19-.06-.32,0-.09,.03-.19,.07-.3l4.45-1.83c-.06,.08-.11,.16-.17,.25Zm1.23-2.18c-.08-.1-.2-.17-.36-.22-.36-.11-1.01-.06-1.63,.14-.36,.12-.72,.29-1.08,.51-.35,.22-.71,.48-1.06,.79-.35,.31-.69,.67-1.03,1.08l-.25,.3c-.09,.11-.16,.21-.23,.31l-.25,.36,5.92-2.39,.04-.12c.05-.16,.07-.3,.06-.43s-.05-.24-.13-.33Zm-4.59,2.28c.31-.38,.63-.72,.94-1,.3-.27,.6-.5,.89-.68,.27-.16,.54-.29,.79-.38,.26-.08,.49-.13,.73-.14,.18-.01,.32,.01,.43,.04,.11,.04,.19,.09,.25,.15,.06,.07,.09,.16,.09,.26,.01,.07,0,.15-.02,.24l-4.26,1.7,.16-.19Zm-1.54,1.49c-.08,.19-.13,.37-.15,.53-.02,.16,.01,.31,.08,.43,.08,.12,.21,.21,.38,.27,.18,.06,.41,.09,.71,.07,.37-.02,.78-.11,1.19-.27,.4-.15,.81-.36,1.2-.63,.37-.25,.74-.55,1.09-.9,.34-.33,.66-.71,.96-1.12,.08-.11,.15-.22,.22-.33,.06-.1,.12-.2,.18-.3l.2-.33-6,2.44-.06,.14Zm4.9-1.59c-.29,.38-.59,.73-.9,1.03-.3,.3-.62,.56-.93,.77-.29,.19-.59,.35-.88,.45-.51,.19-1.04,.23-1.31,.14-.12-.04-.21-.11-.27-.19-.05-.09-.07-.19-.06-.32,0-.09,.03-.19,.07-.3l4.45-1.83c-.06,.08-.11,.16-.17,.25Zm2.53-2.42c-.09-.24-.29-.41-.59-.52-.63-.22-1.75-.15-2.73,.14-.53,.16-1.06,.39-1.56,.67-.5,.28-.99,.62-1.46,1.01-.47,.4-.92,.84-1.34,1.33-.49,.57-.86,1.09-1.08,1.53-.23,.46-.33,.84-.28,1.14,.06,.31,.25,.54,.58,.68,.33,.13,.78,.18,1.34,.15,.64-.04,1.28-.17,1.91-.39,.61-.22,1.2-.51,1.76-.87,.54-.35,1.04-.75,1.49-1.19,.43-.43,.82-.89,1.15-1.37,.38-.55,.64-1.01,.76-1.39,.13-.38,.14-.69,.05-.92Zm-5.2,5.35c-.93,.33-2.07,.42-2.65,.18-.26-.1-.42-.28-.47-.53-.04-.25,.04-.58,.23-.98,.2-.4,.53-.88,.99-1.42,.38-.45,.79-.87,1.22-1.23,.41-.35,.84-.65,1.27-.89,.42-.24,.85-.42,1.29-.56,.43-.13,.87-.2,1.32-.22,.39-.02,.71,.02,.96,.11,.23,.08,.39,.22,.47,.41,.07,.21,.05,.48-.06,.82-.12,.35-.37,.78-.73,1.29-.32,.46-.69,.89-1.09,1.28-.4,.39-.84,.74-1.31,1.03-.45,.29-.94,.53-1.44,.71Zm3.97-4.35c.05-.16,.07-.3,.06-.43s-.05-.24-.13-.33c-.08-.1-.2-.17-.36-.22-.36-.11-1.01-.06-1.63,.14-.36,.12-.72,.29-1.08,.51-.35,.22-.71,.48-1.06,.79-.35,.31-.69,.67-1.03,1.08l-.25,.3c-.09,.11-.16,.21-.23,.31l-.25,.36,5.92-2.39,.04-.12Zm-4.66,1.52c.31-.38,.63-.72,.94-1,.3-.27,.6-.5,.89-.68,.27-.16,.54-.29,.79-.38,.26-.08,.49-.13,.73-.14,.18-.01,.32,.01,.43,.04,.11,.04,.19,.09,.25,.15,.06,.07,.09,.16,.09,.26,.01,.07,0,.15-.02,.24l-4.26,1.7,.16-.19Zm4.14-.46c.06-.1,.12-.2,.18-.3l.2-.33-6,2.44-.06,.14c-.08,.19-.13,.37-.15,.53-.02,.16,.01,.31,.08,.43,.08,.12,.21,.21,.38,.27,.18,.06,.41,.09,.71,.07,.37-.02,.78-.11,1.19-.27,.4-.15,.81-.36,1.2-.63,.37-.25,.74-.55,1.09-.9,.34-.33,.66-.71,.96-1.12,.08-.11,.15-.22,.22-.33Zm-.78,.36c-.29,.38-.59,.73-.9,1.03-.3,.3-.62,.56-.93,.77-.29,.19-.59,.35-.88,.45-.51,.19-1.04,.23-1.31,.14-.12-.04-.21-.11-.27-.19-.05-.09-.07-.19-.06-.32,0-.09,.03-.19,.07-.3l4.45-1.83c-.06,.08-.11,.16-.17,.25Z" style="fill:#2196f3;"/></g><g><path d="M202.94,69.77l-.9,.04-3.06,.99-.03,.61,2.37-.8-2.68,4.39-2.29,.12-.56,.86,5.64-.32,.45-.83-1.94,.1,3-5.16Z" style="fill:#2096f3;"/><path d="M203.28,69.6l-1.14,.04-3.44,1.09-.05,.94,2.23-.75-2.39,3.88-2.28,.12-.87,1.3,6.26-.35,.67-1.27-1.93,.1,2.94-5.1Zm-7.04,6.13l.26-.4,2.29-.13,2.97-4.89-2.51,.84v-.29s2.75-.88,2.75-.88l.59-.03-3.07,5.21,1.96-.1-.22,.39-5.02,.28Z" style="fill:#2196f3;"/></g><g><path d="M210.29,70.07c-.14-.2-.36-.35-.64-.44-.27-.09-.61-.13-1-.11-.46,.01-.88,.09-1.28,.23-.41,.14-.78,.33-1.13,.57-.36,.25-.68,.55-.97,.9-.3,.36-.56,.76-.79,1.2-.26,.53-.43,.99-.49,1.39-.07,.4-.03,.73,.1,.99s.35,.45,.67,.56c.31,.12,.7,.16,1.16,.14,.53-.03,1.03-.14,1.49-.33,.45-.18,.87-.43,1.24-.73,.36-.3,.68-.65,.94-1.04,.27-.39,.48-.8,.64-1.24,.18-.5,.28-.92,.28-1.27s-.07-.61-.22-.82Zm-3.98,4.67c-.22,.01-.41-.01-.57-.06-.15-.04-.27-.12-.36-.21-.09-.1-.15-.22-.19-.35-.03-.14-.04-.29-.02-.45l4.18-2.01c-.02,.09-.05,.18-.08,.28-.03,.09-.06,.19-.1,.29-.15,.38-.32,.72-.52,1.01-.21,.31-.43,.57-.68,.78-.25,.22-.51,.39-.79,.51-.29,.12-.57,.19-.87,.21Zm2.86-4.42c.09,.08,.15,.17,.2,.28,.04,.11,.06,.23,.06,.37l-4.09,1.93c.03-.09,.06-.18,.11-.28,.04-.09,.08-.18,.13-.27,.18-.38,.37-.7,.59-.98,.21-.28,.43-.51,.67-.69,.24-.19,.48-.32,.73-.42,.25-.1,.51-.15,.77-.16,.19,0,.36,.01,.49,.05,.14,.04,.25,.09,.34,.17Z" style="fill:#2096f3;"/><path d="M209.62,70.51c-.05-.13-.13-.23-.23-.32-.1-.09-.24-.16-.4-.2-.37-.11-.96-.07-1.48,.13-.29,.11-.57,.27-.84,.48-.26,.2-.5,.45-.73,.74-.23,.29-.44,.63-.62,1.02l-.14,.28c-.04,.1-.08,.19-.12,.29l-.11,.34,4.74-2.24v-.12c0-.15-.03-.28-.07-.4Zm-3.78,1.82c.17-.35,.36-.67,.56-.93,.19-.26,.4-.47,.61-.64,.2-.16,.41-.28,.62-.36,.21-.08,.42-.12,.63-.13,.17-.01,.3,.01,.41,.04,.12,.03,.21,.08,.28,.14,.08,.07,.13,.15,.17,.24,.02,.07,.04,.14,.05,.23l-3.42,1.59,.09-.18Zm-.94,1.27l-.02,.14c-.01,.17-.01,.34,.03,.49,.03,.15,.1,.29,.21,.4,.1,.11,.25,.2,.43,.26,.18,.05,.41,.08,.67,.06,.34-.02,.69-.1,1.02-.24,.33-.15,.64-.34,.92-.59,.26-.24,.51-.52,.73-.85,.21-.31,.39-.66,.54-1.05,.04-.1,.07-.21,.1-.31,.03-.09,.05-.19,.08-.28l.08-.32-4.79,2.29Zm4.02-1.36c-.15,.36-.32,.69-.51,.98-.19,.28-.4,.52-.63,.71-.21,.19-.44,.33-.67,.43-.41,.18-.89,.21-1.17,.12-.13-.04-.23-.1-.3-.17-.08-.08-.13-.18-.16-.3-.02-.09-.03-.18-.03-.28l3.55-1.72c-.03,.08-.05,.16-.08,.23Zm.7-1.73c-.05-.13-.13-.23-.23-.32-.1-.09-.24-.16-.4-.2-.37-.11-.96-.07-1.48,.13-.29,.11-.57,.27-.84,.48-.26,.2-.5,.45-.73,.74-.23,.29-.44,.63-.62,1.02l-.14,.28c-.04,.1-.08,.19-.12,.29l-.11,.34,4.74-2.24v-.12c0-.15-.03-.28-.07-.4Zm-3.78,1.82c.17-.35,.36-.67,.56-.93,.19-.26,.4-.47,.61-.64,.2-.16,.41-.28,.62-.36,.21-.08,.42-.12,.63-.13,.17-.01,.3,.01,.41,.04,.12,.03,.21,.08,.28,.14,.08,.07,.13,.15,.17,.24,.02,.07,.04,.14,.05,.23l-3.42,1.59,.09-.18Zm-.96,1.41c-.01,.17-.01,.34,.03,.49,.03,.15,.1,.29,.21,.4,.1,.11,.25,.2,.43,.26,.18,.05,.41,.08,.67,.06,.34-.02,.69-.1,1.02-.24,.33-.15,.64-.34,.92-.59,.26-.24,.51-.52,.73-.85,.21-.31,.39-.66,.54-1.05,.04-.1,.07-.21,.1-.31,.03-.09,.05-.19,.08-.28l.08-.32-4.79,2.29-.02,.14Zm4.04-1.5c-.15,.36-.32,.69-.51,.98-.19,.28-.4,.52-.63,.71-.21,.19-.44,.33-.67,.43-.41,.18-.89,.21-1.17,.12-.13-.04-.23-.1-.3-.17-.08-.08-.13-.18-.16-.3-.02-.09-.03-.18-.03-.28l3.55-1.72c-.03,.08-.05,.16-.08,.23Zm1.6-2.27c-.16-.23-.4-.39-.71-.49-.65-.21-1.67-.15-2.49,.13-.44,.15-.86,.36-1.24,.63-.38,.26-.73,.58-1.04,.95s-.59,.79-.82,1.24c-.28,.55-.46,1.03-.52,1.44-.07,.43-.04,.79,.1,1.07,.14,.29,.4,.5,.74,.63,.35,.13,.78,.18,1.28,.15,.58-.04,1.13-.16,1.64-.36,.5-.21,.96-.48,1.36-.82,.39-.32,.73-.69,1.01-1.11,.27-.4,.49-.83,.65-1.28,.19-.52,.28-.96,.28-1.31s-.08-.65-.24-.87Zm-5.55,5.19c-.28-.1-.48-.27-.6-.5-.12-.23-.15-.54-.09-.92,.05-.37,.21-.82,.47-1.33,.21-.43,.46-.81,.74-1.16,.28-.32,.58-.61,.9-.84,.32-.22,.66-.39,1.02-.52,.36-.12,.75-.19,1.17-.21,.35-.01,.66,.02,.91,.1,.25,.08,.44,.22,.57,.4,.13,.19,.2,.45,.19,.77,0,.33-.09,.74-.27,1.22-.16,.42-.37,.83-.62,1.19-.25,.37-.55,.7-.89,.97-.33,.27-.71,.49-1.11,.66-.77,.3-1.79,.39-2.39,.17Zm4.72-4.25c0-.15-.03-.28-.07-.4-.05-.13-.13-.23-.23-.32-.1-.09-.24-.16-.4-.2-.37-.11-.96-.07-1.48,.13-.29,.11-.57,.27-.84,.48-.26,.2-.5,.45-.73,.74-.23,.29-.44,.63-.62,1.02l-.14,.28c-.04,.1-.08,.19-.12,.29l-.11,.34,4.74-2.24v-.12Zm-3.85,1.42c.17-.35,.36-.67,.56-.93,.19-.26,.4-.47,.61-.64,.2-.16,.41-.28,.62-.36,.21-.08,.42-.12,.63-.13,.17-.01,.3,.01,.41,.04,.12,.03,.21,.08,.28,.14,.08,.07,.13,.15,.17,.24,.02,.07,.04,.14,.05,.23l-3.42,1.59,.09-.18Zm3.59-.11c.04-.1,.07-.21,.1-.31,.03-.09,.05-.19,.08-.28l.08-.32-4.79,2.29-.02,.14c-.01,.17-.01,.34,.03,.49,.03,.15,.1,.29,.21,.4,.1,.11,.25,.2,.43,.26,.18,.05,.41,.08,.67,.06,.34-.02,.69-.1,1.02-.24,.33-.15,.64-.34,.92-.59,.26-.24,.51-.52,.73-.85,.21-.31,.39-.66,.54-1.05Zm-3.49,2.26c-.13-.04-.23-.1-.3-.17-.08-.08-.13-.18-.16-.3-.02-.09-.03-.18-.03-.28l3.55-1.72c-.03,.08-.05,.16-.08,.23-.15,.36-.32,.69-.51,.98-.19,.28-.4,.52-.63,.71-.21,.19-.44,.33-.67,.43-.41,.18-.89,.21-1.17,.12Z" style="fill:#2196f3;"/></g><g><path d="M214.3,74.16l1.23-4.85-.83,.03-2.54,.93,.16,.58,1.96-.75-1.16,4.12-2.07,.11-.26,.8,5.11-.28,.17-.78-1.77,.09Z" style="fill:#2096f3;"/><path d="M214.61,73.94l1.19-4.8-1.05,.04-2.87,1.02,.25,.9,1.84-.71-1.05,3.64-2.07,.11-.41,1.22,5.68-.32,.25-1.19-1.76,.09Zm1.08,.71l-4.56,.25,.12-.37,2.08-.12,1.26-4.6-2.07,.79-.08-.27,2.28-.83,.54-.03-1.27,4.91,1.78-.1-.08,.37Z" style="fill:#2196f3;"/></g><g><path d="M222.91,70.37c-.1-.32-.25-.58-.44-.77-.2-.2-.44-.34-.73-.43-.28-.08-.61-.12-.97-.1-.42,.01-.79,.09-1.12,.22-.34,.13-.63,.31-.88,.54-.26,.24-.47,.52-.64,.85-.17,.34-.29,.71-.37,1.13-.09,.5-.1,.93-.04,1.3,.06,.38,.19,.69,.39,.93,.2,.25,.46,.43,.78,.53,.33,.11,.7,.15,1.12,.13,.48-.03,.91-.13,1.28-.3,.37-.17,.68-.4,.93-.69,.25-.28,.44-.61,.58-.97,.13-.37,.2-.76,.22-1.17,.03-.47,0-.87-.11-1.2Zm-2.76,3.62c-.21,.01-.39-.01-.54-.05-.16-.05-.29-.12-.41-.21-.11-.09-.2-.2-.27-.32-.07-.13-.12-.27-.16-.43l3.29-1.89c0,.09,.01,.18,.01,.27s0,.18-.01,.28c-.02,.35-.09,.67-.19,.95-.1,.29-.23,.53-.39,.73-.17,.21-.37,.37-.59,.48-.23,.11-.47,.18-.74,.19Zm1.78-3.55l-3.23,1.82c0-.09,.01-.17,.02-.26s.02-.17,.04-.26c.05-.35,.14-.66,.25-.92,.12-.26,.26-.48,.42-.65,.17-.18,.35-.31,.56-.4,.21-.09,.43-.14,.67-.15,.17-.01,.33,.01,.47,.04,.14,.04,.26,.1,.37,.17,.1,.07,.19,.16,.26,.26,.07,.11,.13,.22,.17,.35Z" style="fill:#2096f3;"/><path d="M222.15,70.39c-.04-.14-.11-.27-.18-.38-.09-.12-.19-.22-.31-.3-.12-.09-.27-.15-.43-.2-.38-.1-.92-.06-1.34,.13-.24,.1-.45,.25-.64,.45-.18,.19-.33,.43-.46,.7-.12,.27-.21,.6-.27,.96l-.04,.26c-.02,.1-.02,.19-.03,.28v.32l3.74-2.11-.04-.11Zm-3.16,1.34c.06-.34,.14-.64,.25-.89,.1-.24,.23-.44,.38-.6,.14-.15,.3-.26,.47-.34,.17-.07,.35-.11,.55-.12,.15-.01,.28,0,.39,.04,.11,.03,.22,.07,.3,.13,.09,.06,.17,.14,.23,.23,.04,.06,.08,.14,.11,.21l-2.7,1.51,.02-.17Zm3.3-.66l-.02-.3-3.77,2.15,.03,.13c.03,.16,.09,.32,.16,.46,.08,.14,.19,.27,.32,.38,.13,.1,.29,.18,.48,.24,.18,.05,.4,.07,.64,.06,.31-.02,.6-.09,.87-.23,.26-.13,.49-.32,.68-.55,.17-.22,.32-.49,.42-.79,.11-.3,.17-.63,.2-.99v-.29c0-.1-.01-.18-.01-.27Zm-.46,.58c-.03,.34-.09,.65-.19,.91-.09,.27-.22,.49-.37,.67-.14,.18-.31,.31-.49,.41-.33,.16-.77,.19-1.05,.11-.13-.04-.24-.09-.33-.17-.1-.07-.18-.17-.24-.28-.04-.08-.08-.17-.11-.26l2.79-1.61c0,.07-.01,.14-.01,.22Zm.46-.58l-.02-.3-3.77,2.15,.03,.13c.03,.16,.09,.32,.16,.46,.08,.14,.19,.27,.32,.38,.13,.1,.29,.18,.48,.24,.18,.05,.4,.07,.64,.06,.31-.02,.6-.09,.87-.23,.26-.13,.49-.32,.68-.55,.17-.22,.32-.49,.42-.79,.11-.3,.17-.63,.2-.99v-.29c0-.1-.01-.18-.01-.27Zm-.46,.58c-.03,.34-.09,.65-.19,.91-.09,.27-.22,.49-.37,.67-.14,.18-.31,.31-.49,.41-.33,.16-.77,.19-1.05,.11-.13-.04-.24-.09-.33-.17-.1-.07-.18-.17-.24-.28-.04-.08-.08-.17-.11-.26l2.79-1.61c0,.07-.01,.14-.01,.22Zm.32-1.26c-.04-.14-.11-.27-.18-.38-.09-.12-.19-.22-.31-.3-.12-.09-.27-.15-.43-.2-.38-.1-.92-.06-1.34,.13-.24,.1-.45,.25-.64,.45-.18,.19-.33,.43-.46,.7-.12,.27-.21,.6-.27,.96l-.04,.26c-.02,.1-.02,.19-.03,.28v.32l3.74-2.11-.04-.11Zm-3.16,1.34c.06-.34,.14-.64,.25-.89,.1-.24,.23-.44,.38-.6,.14-.15,.3-.26,.47-.34,.17-.07,.35-.11,.55-.12,.15-.01,.28,0,.39,.04,.11,.03,.22,.07,.3,.13,.09,.06,.17,.14,.23,.23,.04,.06,.08,.14,.11,.21l-2.7,1.51,.02-.17Zm4.14-1.41c-.11-.34-.27-.61-.48-.83-.22-.21-.49-.37-.8-.46-.68-.2-1.61-.14-2.29,.12-.37,.15-.69,.35-.97,.6-.27,.25-.5,.55-.68,.9-.17,.35-.31,.74-.39,1.17-.09,.51-.11,.97-.05,1.35,.06,.4,.2,.74,.41,1.01,.22,.27,.52,.47,.88,.59,.36,.12,.77,.16,1.23,.14,.52-.03,1-.15,1.41-.34,.4-.19,.74-.45,1.02-.76,.26-.3,.47-.65,.61-1.04,.13-.38,.21-.78,.23-1.21,.02-.49-.03-.9-.13-1.24Zm-.56,2.38c-.13,.35-.31,.65-.54,.91-.23,.26-.51,.46-.84,.62-.61,.28-1.53,.36-2.16,.15-.29-.09-.52-.25-.7-.47-.18-.22-.31-.51-.36-.86-.06-.35-.05-.77,.03-1.25,.07-.4,.19-.77,.35-1.09,.16-.31,.36-.58,.59-.79,.22-.21,.49-.38,.79-.5s.64-.18,1.02-.2c.33-.01,.63,.02,.89,.1,.25,.08,.47,.2,.64,.38,.18,.18,.32,.42,.41,.72,.09,.31,.13,.7,.1,1.16-.02,.4-.1,.78-.22,1.12Zm-.3-1.93l-3.77,2.15,.03,.13c.03,.16,.09,.32,.16,.46,.08,.14,.19,.27,.32,.38,.13,.1,.29,.18,.48,.24,.18,.05,.4,.07,.64,.06,.31-.02,.6-.09,.87-.23,.26-.13,.49-.32,.68-.55,.17-.22,.32-.49,.42-.79,.11-.3,.17-.63,.2-.99v-.29c0-.1-.01-.18-.01-.27l-.02-.3Zm-.44,.88c-.03,.34-.09,.65-.19,.91-.09,.27-.22,.49-.37,.67-.14,.18-.31,.31-.49,.41-.33,.16-.77,.19-1.05,.11-.13-.04-.24-.09-.33-.17-.1-.07-.18-.17-.24-.28-.04-.08-.08-.17-.11-.26l2.79-1.61c0,.07-.01,.14-.01,.22Zm.32-1.26c-.04-.14-.11-.27-.18-.38-.09-.12-.19-.22-.31-.3-.12-.09-.27-.15-.43-.2-.38-.1-.92-.06-1.34,.13-.24,.1-.45,.25-.64,.45-.18,.19-.33,.43-.46,.7-.12,.27-.21,.6-.27,.96l-.04,.26c-.02,.1-.02,.19-.03,.28v.32l3.74-2.11-.04-.11Zm-3.16,1.34c.06-.34,.14-.64,.25-.89,.1-.24,.23-.44,.38-.6,.14-.15,.3-.26,.47-.34,.17-.07,.35-.11,.55-.12,.15-.01,.28,0,.39,.04,.11,.03,.22,.07,.3,.13,.09,.06,.17,.14,.23,.23,.04,.06,.08,.14,.11,.21l-2.7,1.51,.02-.17Z" style="fill:#2196f3;"/></g><g><path d="M229,73.37l-1.61,.09-.26-4.59-.77,.03-1.27,.53h-.01s-.81,.35-.81,.35l.22,.38,.1,.17,1.6-.7,.13,3.89-1.35,.07-.55,.03v.75s1.7-.1,1.7-.1l2.95-.16-.07-.74Z" style="fill:#2096f3;"/><path d="M229.22,73.17l-1.6,.09-.29-4.54-.97,.03-.6,.25-1.78,.72,.4,.68,.1,.17,1.5-.67,.09,3.44-1.28,.07-.61,.03-.02,1.14,3.58-.2,1.14-.07,.45-.02h0s-.11-1.12-.11-1.12Zm-3.56,.92l-1,.06v-.35l.51-.03,1.39-.07-.16-4.35-1.7,.75-.08-.13-.07-.12,.24-.1,1.63-.7,.51-.02,.23,4.63,1.63-.08,.03,.34-3.15,.17h-.01Z" style="fill:#2196f3;"/></g></g></g></svg>