<?xml version="1.0" encoding="utf-8"?>
<svg>
    <symbol id="password-visible" xmlns="http://www.w3.org/2000/svg" viewBox="0 0 16 16"><path d="M7.5 4C2.105469 4 0.046875 8.289063 0.046875 8.289063L-0.0546875 8.5L0.046875 8.710938C0.046875 8.710938 2.105469 13 7.5 13C12.894531 13 14.953125 8.710938 14.953125 8.710938L15.050781 8.5L14.953125 8.289063C14.953125 8.289063 12.894531 4 7.5 4 Z M 7.5 5C9.4375 5 11 6.5625 11 8.5C11 10.4375 9.4375 12 7.5 12C5.5625 12 4 10.4375 4 8.5C4 6.5625 5.5625 5 7.5 5 Z M 3.941406 5.777344C3.359375 6.535156 3 7.472656 3 8.5C3 9.527344 3.359375 10.464844 3.941406 11.222656C2.023438 10.269531 1.242188 8.753906 1.117188 8.5C1.242188 8.246094 2.023438 6.730469 3.941406 5.777344 Z M 11.058594 5.777344C12.976563 6.730469 13.757813 8.246094 13.882813 8.5C13.757813 8.753906 12.976563 10.269531 11.058594 11.222656C11.640625 10.464844 12 9.527344 12 8.5C12 7.472656 11.640625 6.535156 11.058594 5.777344 Z M 7.5 7C6.671875 7 6 7.671875 6 8.5C6 9.328125 6.671875 10 7.5 10C8.328125 10 9 9.328125 9 8.5C9 7.671875 8.328125 7 7.5 7Z" /></symbol>
    <symbol id="password-invisible" xmlns="http://www.w3.org/2000/svg" viewBox="0 0 16 16"><path d="M2.675781 2.023438L1.96875 2.726563L3.9375 4.695313C1.171875 5.871094 0.0546875 8.15625 -0.0078125 8.289063L-0.101563 8.5L-0.0078125 8.710938C0.0742188 8.886719 2.058594 13 7.445313 13C9.039063 13 10.328125 12.636719 11.363281 12.125L13.21875 13.980469L13.925781 13.269531L11.53125 10.875L11.347656 10.695313C11.351563 10.695313 11.351563 10.695313 11.351563 10.691406L10.621094 9.960938C10.617188 9.960938 10.617188 9.960938 10.617188 9.960938L8.921875 8.269531C8.921875 8.269531 8.925781 8.265625 8.921875 8.265625L7.683594 7.023438C7.683594 7.023438 7.679688 7.023438 7.679688 7.023438L5.984375 5.328125C5.984375 5.328125 5.988281 5.328125 5.988281 5.328125L4.984375 4.328125C4.984375 4.328125 4.980469 4.324219 4.980469 4.328125 Z M 7.445313 4C6.992188 4 6.570313 4.039063 6.164063 4.09375L7.109375 5.03125C7.222656 5.023438 7.332031 5 7.445313 5C9.378906 5 10.949219 6.570313 10.949219 8.5C10.949219 8.617188 10.925781 8.726563 10.914063 8.84375L11.769531 9.695313C11.878906 9.316406 11.949219 8.917969 11.949219 8.5C11.949219 7.503906 11.613281 6.585938 11.058594 5.839844C12.722656 6.703125 13.589844 7.988281 13.882813 8.5C13.679688 8.847656 13.1875 9.574219 12.351563 10.277344L13.074219 11C14.316406 9.925781 14.863281 8.804688 14.90625 8.710938L15 8.5L14.902344 8.289063C14.820313 8.113281 12.835938 4 7.445313 4 Z M 3.824219 5.859375C3.28125 6.601563 2.945313 7.511719 2.945313 8.5C2.945313 9.5 3.285156 10.414063 3.839844 11.160156C2.175781 10.300781 1.308594 9.011719 1.015625 8.5C1.304688 8.003906 2.175781 6.722656 3.824219 5.859375 Z M 5.132813 5.890625L6.546875 7.304688C6.183594 7.582031 5.945313 8.011719 5.945313 8.5C5.945313 9.328125 6.621094 10 7.445313 10C7.9375 10 8.367188 9.761719 8.640625 9.398438L10.058594 10.816406C9.417969 11.539063 8.488281 12 7.445313 12C5.515625 12 3.945313 10.429688 3.945313 8.5C3.945313 7.460938 4.40625 6.53125 5.132813 5.890625Z" /></symbol>
    <symbol id="done" xmlns="http://www.w3.org/2000/svg" viewBox="0 0 26 26"><path d="M22.566406 4.730469L20.773438 3.511719C20.277344 3.175781 19.597656 3.304688 19.265625 3.796875L10.476563 16.757813L6.4375 12.71875C6.015625 12.296875 5.328125 12.296875 4.90625 12.71875L3.371094 14.253906C2.949219 14.675781 2.949219 15.363281 3.371094 15.789063L9.582031 22C9.929688 22.347656 10.476563 22.613281 10.96875 22.613281C11.460938 22.613281 11.957031 22.304688 12.277344 21.839844L22.855469 6.234375C23.191406 5.742188 23.0625 5.066406 22.566406 4.730469Z" /></symbol>
</svg>