<?xml version="1.0" encoding="utf-8"?>
<svg>
    <!--These icons taken from Icons8 (pichon) app's fluent regular style-->
    <symbol id="password-visible" xmlns="http://www.w3.org/2000/svg" viewBox="0 0 48 48"><path d="M 23.986328 9 C 12.666705 9 2.6928719 16.845918 0.046875 27.126953 A 1.5002454 1.5002454 0 0 0 2.953125 27.873047 C 5.2331281 19.014082 14.065951 12 23.986328 12 C 33.906705 12 42.767507 19.01655 45.046875 27.873047 A 1.5002454 1.5002454 0 0 0 47.953125 27.126953 C 45.306493 16.84345 35.305951 9 23.986328 9 z M 24.001953 17 C 18.681885 17 14.337891 21.343999 14.337891 26.664062 C 14.337891 31.984127 18.681885 36.330078 24.001953 36.330078 C 29.322021 36.330078 33.667969 31.984126 33.667969 26.664062 C 33.667969 21.343999 29.322021 17 24.001953 17 z M 24.001953 20 C 27.700702 20 30.667969 22.965317 30.667969 26.664062 C 30.667969 30.36281 27.700702 33.330078 24.001953 33.330078 C 20.303205 33.330078 17.337891 30.362809 17.337891 26.664062 C 17.337891 22.965317 20.303205 20 24.001953 20 z"/></symbol> 
    <symbol id="password-invisible" xmlns="http://www.w3.org/2000/svg" viewBox="0 0 48 48"><path d="M 42.470703 3.9863281 A 1.50015 1.50015 0 0 0 41.439453 4.4394531 L 4.4394531 41.439453 A 1.50015 1.50015 0 1 0 6.5605469 43.560547 L 16.916016 33.205078 C 18.6847 35.119215 21.200325 36.330078 24 36.330078 C 29.33 36.330078 33.669922 31.989922 33.669922 26.669922 C 33.669922 23.870103 32.45923 21.347142 30.544922 19.576172 L 35.052734 15.068359 C 39.90447 17.90912 43.668811 22.496845 45.050781 27.869141 C 45.220781 28.549141 45.83 29 46.5 29 C 46.62 29 46.749141 28.989219 46.869141 28.949219 C 47.679141 28.749219 48.159219 27.930859 47.949219 27.130859 C 46.409379 21.128251 42.461227 16.073087 37.277344 12.84375 L 43.560547 6.5605469 A 1.50015 1.50015 0 0 0 42.470703 3.9863281 z M 23.990234 9 C 12.820234 9 2.7507813 16.620859 0.05078125 27.130859 C -0.15921875 27.930859 0.32085937 28.749219 1.1308594 28.949219 C 1.9308594 29.159219 2.7492187 28.679141 2.9492188 27.869141 C 5.2792187 18.819141 14.330234 12 23.990234 12 C 25.700234 12 27.389531 12.209141 29.019531 12.619141 L 31.480469 10.160156 C 29.090469 9.4001562 26.570234 9 23.990234 9 z M 24 17 C 18.67 17 14.339844 21.339922 14.339844 26.669922 C 14.339844 26.869922 14.349375 27.079297 14.359375 27.279297 L 18.150391 23.490234 C 18.760391 22.360234 19.700078 21.420547 20.830078 20.810547 L 24.619141 17.019531 C 24.409141 17.009531 24.21 17 24 17 z M 28.425781 21.695312 C 29.796425 22.916506 30.669922 24.687458 30.669922 26.669922 C 30.669922 30.339922 27.68 33.330078 24 33.330078 C 22.025372 33.330078 20.255983 32.456581 19.035156 31.085938 L 28.425781 21.695312 z"/></symbol>     

    <symbol id="like" xmlns="http://www.w3.org/2000/svg" viewBox="0 0 48 48"><path d="M 15 7 C 8.9424416 7 4 11.942442 4 18 C 4 22.096154 7.0876448 25.952899 10.851562 29.908203 C 14.615481 33.863507 19.248379 37.869472 22.939453 41.560547 A 1.50015 1.50015 0 0 0 25.060547 41.560547 C 28.751621 37.869472 33.384518 33.863507 37.148438 29.908203 C 40.912356 25.952899 44 22.096154 44 18 C 44 11.942442 39.057558 7 33 7 C 29.523564 7 26.496821 8.8664883 24 12.037109 C 21.503179 8.8664883 18.476436 7 15 7 z M 15 10 C 17.928571 10 20.3663 11.558399 22.732422 15.300781 A 1.50015 1.50015 0 0 0 25.267578 15.300781 C 27.6337 11.558399 30.071429 10 33 10 C 37.436442 10 41 13.563558 41 18 C 41 20.403846 38.587644 24.047101 34.976562 27.841797 C 31.68359 31.30221 27.590312 34.917453 24 38.417969 C 20.409688 34.917453 16.31641 31.30221 13.023438 27.841797 C 9.4123552 24.047101 7 20.403846 7 18 C 7 13.563558 10.563558 10 15 10 z"/></symbol> 
    <symbol id="rate" xmlns="http://www.w3.org/2000/svg" viewBox="0 0 48 48"><path d="M 24.009766 5 A 1.50015 1.50015 0 0 0 22.658203 5.8300781 L 17.578125 15.992188 C 15.530187 15.80388 13.498101 16.151786 11.597656 16.679688 C 9.2979622 17.318491 7.125 18 5.5 18 A 1.50015 1.50015 0 0 0 4.0761719 19.974609 C 6.0671135 25.947434 11.358775 28.571355 12.865234 29.265625 L 11.017578 41.271484 A 1.50015 1.50015 0 0 0 13.4375 42.671875 C 17.797031 39.18425 23.106141 37.404701 23.90625 37.142578 L 34.806641 42.830078 A 1.50015 1.50015 0 0 0 36.992188 41.351562 C 36.992188 41.351562 36.739205 38.80365 36.228516 35.867188 C 35.803139 33.42127 35.209455 30.921583 34.269531 28.925781 L 43.503906 20.615234 A 1.50015 1.50015 0 0 0 43.169922 18.158203 C 43.169922 18.158203 37.423805 15.382564 30.421875 15.990234 L 25.341797 5.8300781 A 1.50015 1.50015 0 0 0 24.009766 5 z M 24 9.8535156 L 28.158203 18.169922 A 1.50015 1.50015 0 0 0 29.712891 18.984375 C 34.217232 18.340898 37.546524 19.308913 39.625 20.068359 L 31.496094 27.384766 A 1.50015 1.50015 0 0 0 31.251953 29.332031 C 31.889265 30.287998 32.782174 33.569275 33.271484 36.382812 C 33.498358 37.687339 33.491301 37.88312 33.613281 38.824219 L 24.693359 34.169922 A 1.50015 1.50015 0 0 0 23.558594 34.066406 C 23.558594 34.066406 19.053974 35.511778 14.501953 38.349609 L 15.982422 28.728516 A 1.50015 1.50015 0 0 0 15.091797 27.121094 C 15.091797 27.121094 10.247963 24.728011 7.8808594 20.669922 C 9.4239079 20.381089 10.947117 19.974542 12.402344 19.570312 C 14.602649 18.959117 16.62179 18.576346 18.136719 18.955078 A 1.50015 1.50015 0 0 0 19.841797 18.169922 L 24 9.8535156 z"/></symbol> 
    <symbol id="delete" xmlns="http://www.w3.org/2000/svg" viewBox="0 0 48 48"><path d="M 24 4 C 20.704135 4 18 6.7041348 18 10 L 11.746094 10 A 1.50015 1.50015 0 0 0 11.476562 9.9785156 A 1.50015 1.50015 0 0 0 11.259766 10 L 7.5 10 A 1.50015 1.50015 0 1 0 7.5 13 L 10 13 L 10 38.5 C 10 41.519774 12.480226 44 15.5 44 L 32.5 44 C 35.519774 44 38 41.519774 38 38.5 L 38 13 L 40.5 13 A 1.50015 1.50015 0 1 0 40.5 10 L 36.746094 10 A 1.50015 1.50015 0 0 0 36.259766 10 L 30 10 C 30 6.7041348 27.295865 4 24 4 z M 24 7 C 25.674135 7 27 8.3258652 27 10 L 21 10 C 21 8.3258652 22.325865 7 24 7 z M 13 13 L 35 13 L 35 38.5 C 35 39.898226 33.898226 41 32.5 41 L 15.5 41 C 14.101774 41 13 39.898226 13 38.5 L 13 13 z M 20.476562 17.978516 A 1.50015 1.50015 0 0 0 19 19.5 L 19 34.5 A 1.50015 1.50015 0 1 0 22 34.5 L 22 19.5 A 1.50015 1.50015 0 0 0 20.476562 17.978516 z M 27.476562 17.978516 A 1.50015 1.50015 0 0 0 26 19.5 L 26 34.5 A 1.50015 1.50015 0 1 0 29 34.5 L 29 19.5 A 1.50015 1.50015 0 0 0 27.476562 17.978516 z"/></symbol> 
    <symbol id="update" xmlns="http://www.w3.org/2000/svg" viewBox="0 0 48 48"><path d="M 24 6 C 14.43628 6 6.6113319 13.506889 6.0546875 22.933594 L 4.0605469 20.939453 A 1.50015 1.50015 0 0 0 2.984375 20.484375 A 1.50015 1.50015 0 0 0 1.9394531 23.060547 L 6.4394531 27.560547 A 1.50015 1.50015 0 0 0 8.5605469 27.560547 L 13.060547 23.060547 A 1.50015 1.50015 0 1 0 10.939453 20.939453 L 9.0605469 22.818359 C 9.6620356 15.072863 16.096509 9 24 9 C 29.075961 9 33.534381 11.51678 36.251953 15.365234 A 1.5002303 1.5002303 0 1 0 38.703125 13.634766 C 35.446698 9.0232192 30.070039 6 24 6 z M 40.478516 20 A 1.50015 1.50015 0 0 0 39.439453 20.439453 L 34.939453 24.939453 A 1.50015 1.50015 0 1 0 37.060547 27.060547 L 38.939453 25.181641 C 38.337964 32.927137 31.903491 39 24 39 C 18.924039 39 14.465619 36.48322 11.748047 32.634766 A 1.5002303 1.5002303 0 1 0 9.296875 34.365234 C 12.553302 38.97678 17.929961 42 24 42 C 33.56372 42 41.388668 34.493111 41.945312 25.066406 L 43.939453 27.060547 A 1.50015 1.50015 0 1 0 46.060547 24.939453 L 41.560547 20.439453 A 1.50015 1.50015 0 0 0 40.478516 20 z"/></symbol> 
    <symbol id="refresh" xmlns="http://www.w3.org/2000/svg" viewBox="0 0 48 48"><path d="M 10.476562 5.9785156 A 1.50015 1.50015 0 0 0 9 7.5 L 9 14.5 A 1.50015 1.50015 0 0 0 10.5 16 L 17.5 16 A 1.50015 1.50015 0 1 0 17.5 13 L 13.835938 13 C 16.507869 10.527304 20.062754 9 24 9 C 32.3024 9 39 15.6976 39 24 C 39 32.3024 32.3024 39 24 39 C 15.6976 39 9 32.3024 9 24 C 9 22.905578 9.1163262 21.840688 9.3378906 20.816406 A 1.50015 1.50015 0 1 0 6.40625 20.183594 C 6.1398144 21.415312 6 22.692422 6 24 C 6 33.9236 14.0764 42 24 42 C 33.9236 42 42 33.9236 42 24 C 42 14.0764 33.9236 6 24 6 C 19.395336 6 15.187216 7.7407783 12 10.59375 L 12 7.5 A 1.50015 1.50015 0 0 0 10.476562 5.9785156 z"/></symbol> 
    <symbol id="close" xmlns="http://www.w3.org/2000/svg" viewBox="0 0 48 48"><path d="M 39.486328 6.9785156 A 1.50015 1.50015 0 0 0 38.439453 7.4394531 L 24 21.878906 L 9.5605469 7.4394531 A 1.50015 1.50015 0 0 0 8.484375 6.984375 A 1.50015 1.50015 0 0 0 7.4394531 9.5605469 L 21.878906 24 L 7.4394531 38.439453 A 1.50015 1.50015 0 1 0 9.5605469 40.560547 L 24 26.121094 L 38.439453 40.560547 A 1.50015 1.50015 0 1 0 40.560547 38.439453 L 26.121094 24 L 40.560547 9.5605469 A 1.50015 1.50015 0 0 0 39.486328 6.9785156 z"/></symbol> 
    <symbol id="done" xmlns="http://www.w3.org/2000/svg" viewBox="0 0 48 48"><path d="M 43.470703 8.9863281 A 1.50015 1.50015 0 0 0 42.439453 9.4394531 L 16.5 35.378906 L 5.5605469 24.439453 A 1.50015 1.50015 0 1 0 3.4394531 26.560547 L 15.439453 38.560547 A 1.50015 1.50015 0 0 0 17.560547 38.560547 L 44.560547 11.560547 A 1.50015 1.50015 0 0 0 43.470703 8.9863281 z"/></symbol> 
    <symbol id="link" xmlns="http://www.w3.org/2000/svg" viewBox="0 0 48 48"><path d="M 11.5 6 C 5.16 6 0 11.16 0 17.5 C 0 23.02 3.909375 27.64 9.109375 28.75 C 9.229375 27.74 9.4492969 26.760078 9.7792969 25.830078 C 5.9092969 25.030078 3 21.6 3 17.5 C 3 12.81 6.81 9 11.5 9 L 24.5 9 C 29.19 9 33 12.81 33 17.5 C 33 22.19 29.19 26 24.5 26 L 20.369141 26 C 19.329141 26.7 18.560937 27.77 18.210938 29 L 24.5 29 C 30.84 29 36 23.84 36 17.5 C 36 11.16 30.84 6 24.5 6 L 11.5 6 z M 23.5 19 C 17.16 19 12 24.16 12 30.5 C 12 36.84 17.16 42 23.5 42 L 36.5 42 C 42.84 42 48 36.84 48 30.5 C 48 24.98 44.090625 20.36 38.890625 19.25 C 38.770625 20.26 38.550703 21.239922 38.220703 22.169922 C 42.090703 22.969922 45 26.4 45 30.5 C 45 35.19 41.19 39 36.5 39 L 23.5 39 C 18.81 39 15 35.19 15 30.5 C 15 25.81 18.81 22 23.5 22 L 27.630859 22 C 28.670859 21.3 29.439063 20.23 29.789062 19 L 23.5 19 z"/></symbol> 
    <symbol id="share" xmlns="http://www.w3.org/2000/svg" viewBox="0 0 48 48"><path d="M 36 5 C 32.151772 5 29 8.1517752 29 12 C 29 12.585766 29.198543 13.109464 29.335938 13.654297 L 17.345703 19.652344 C 16.059118 18.073938 14.181503 17 12 17 C 8.1517722 17 5 20.151775 5 24 C 5 27.848225 8.1517722 31 12 31 C 14.181503 31 16.059118 29.926062 17.345703 28.347656 L 29.335938 34.345703 C 29.198543 34.890536 29 35.414234 29 36 C 29 39.848225 32.151772 43 36 43 C 39.848228 43 43 39.848225 43 36 C 43 32.151775 39.848228 29 36 29 C 33.818497 29 31.940882 30.073938 30.654297 31.652344 L 18.664062 25.654297 C 18.801457 25.109464 19 24.585766 19 24 C 19 23.414234 18.801457 22.890536 18.664062 22.345703 L 30.654297 16.347656 C 31.940882 17.926062 33.818497 19 36 19 C 39.848228 19 43 15.848225 43 12 C 43 8.1517752 39.848228 5 36 5 z M 36 8 C 38.226909 8 40 9.7730927 40 12 C 40 14.226907 38.226909 16 36 16 C 33.773091 16 32 14.226907 32 12 C 32 9.7730927 33.773091 8 36 8 z M 12 20 C 14.226909 20 16 21.773093 16 24 C 16 26.226907 14.226909 28 12 28 C 9.7730915 28 8 26.226907 8 24 C 8 21.773093 9.7730915 20 12 20 z M 36 32 C 38.226909 32 40 33.773093 40 36 C 40 38.226907 38.226909 40 36 40 C 33.773091 40 32 38.226907 32 36 C 32 33.773093 33.773091 32 36 32 z"/></symbol> 
    
    <symbol id="home" xmlns="http://www.w3.org/2000/svg" viewBox="0 0 48 48"><path d="M 23.951172 4 A 1.50015 1.50015 0 0 0 23.072266 4.3222656 L 8.859375 15.519531 C 7.0554772 16.941163 6 19.113506 6 21.410156 L 6 40.5 C 6 41.863594 7.1364058 43 8.5 43 L 18.5 43 C 19.863594 43 21 41.863594 21 40.5 L 21 30.5 C 21 30.204955 21.204955 30 21.5 30 L 26.5 30 C 26.795045 30 27 30.204955 27 30.5 L 27 40.5 C 27 41.863594 28.136406 43 29.5 43 L 39.5 43 C 40.863594 43 42 41.863594 42 40.5 L 42 21.410156 C 42 19.113506 40.944523 16.941163 39.140625 15.519531 L 24.927734 4.3222656 A 1.50015 1.50015 0 0 0 23.951172 4 z M 24 7.4101562 L 37.285156 17.876953 C 38.369258 18.731322 39 20.030807 39 21.410156 L 39 40 L 30 40 L 30 30.5 C 30 28.585045 28.414955 27 26.5 27 L 21.5 27 C 19.585045 27 18 28.585045 18 30.5 L 18 40 L 9 40 L 9 21.410156 C 9 20.030807 9.6307412 18.731322 10.714844 17.876953 L 24 7.4101562 z"/></symbol> 
    <symbol id="search" xmlns="http://www.w3.org/2000/svg" viewBox="0 0 48 48"><path d="M 20.5 6 C 12.509634 6 6 12.50964 6 20.5 C 6 28.49036 12.509634 35 20.5 35 C 23.956359 35 27.133709 33.779044 29.628906 31.75 L 39.439453 41.560547 A 1.50015 1.50015 0 1 0 41.560547 39.439453 L 31.75 29.628906 C 33.779044 27.133709 35 23.956357 35 20.5 C 35 12.50964 28.490366 6 20.5 6 z M 20.5 9 C 26.869047 9 32 14.130957 32 20.5 C 32 23.602612 30.776198 26.405717 28.791016 28.470703 A 1.50015 1.50015 0 0 0 28.470703 28.791016 C 26.405717 30.776199 23.602614 32 20.5 32 C 14.130953 32 9 26.869043 9 20.5 C 9 14.130957 14.130953 9 20.5 9 z"/></symbol>
    <symbol id="menu" xmlns="http://www.w3.org/2000/svg" viewBox="0 0 48 48"><path d="M 5.5 9 A 1.50015 1.50015 0 1 0 5.5 12 L 42.5 12 A 1.50015 1.50015 0 1 0 42.5 9 L 5.5 9 z M 5.5 22.5 A 1.50015 1.50015 0 1 0 5.5 25.5 L 42.5 25.5 A 1.50015 1.50015 0 1 0 42.5 22.5 L 5.5 22.5 z M 5.5 36 A 1.50015 1.50015 0 1 0 5.5 39 L 42.5 39 A 1.50015 1.50015 0 1 0 42.5 36 L 5.5 36 z"/></symbol> 
    <symbol id="print" xmlns="http://www.w3.org/2000/svg" viewBox="0 0 48 48"><path d="M 16.5 5 C 14.032499 5 12 7.0324991 12 9.5 L 12 11 L 10.5 11 C 6.9280619 11 4 13.928062 4 17.5 L 4 31.5 C 4 33.967501 6.0324991 36 8.5 36 L 12 36 L 12 38.5 C 12 40.967501 14.032499 43 16.5 43 L 31.5 43 C 33.967501 43 36 40.967501 36 38.5 L 36 36 L 39.5 36 C 41.967501 36 44 33.967501 44 31.5 L 44 17.5 C 44 13.928062 41.071938 11 37.5 11 L 36 11 L 36 9.5 C 36 7.0324991 33.967501 5 31.5 5 L 16.5 5 z M 16.5 8 L 31.5 8 C 32.346499 8 33 8.6535009 33 9.5 L 33 11 L 15 11 L 15 9.5 C 15 8.6535009 15.653501 8 16.5 8 z M 10.5 14 L 37.5 14 C 39.450062 14 41 15.549938 41 17.5 L 41 31.5 C 41 32.346499 40.346499 33 39.5 33 L 36 33 L 36 29.5 C 36 27.032499 33.967501 25 31.5 25 L 16.5 25 C 14.032499 25 12 27.032499 12 29.5 L 12 33 L 8.5 33 C 7.6535009 33 7 32.346499 7 31.5 L 7 17.5 C 7 15.549938 8.5499381 14 10.5 14 z M 16.5 28 L 31.5 28 C 32.346499 28 33 28.653501 33 29.5 L 33 38.5 C 33 39.346499 32.346499 40 31.5 40 L 16.5 40 C 15.653501 40 15 39.346499 15 38.5 L 15 29.5 C 15 28.653501 15.653501 28 16.5 28 z"/></symbol> 
    <symbol id="notification" xmlns="http://www.w3.org/2000/svg" viewBox="0 0 48 48"><path d="M 23.277344 4.0175781 C 15.193866 4.3983176 9 11.343391 9 19.380859 L 9 26.648438 L 6.3496094 31.980469 A 1.50015 1.50015 0 0 0 6.3359375 32.009766 C 5.2696804 34.277268 6.9957076 37 9.5019531 37 L 18 37 C 18 40.295865 20.704135 43 24 43 C 27.295865 43 30 40.295865 30 37 L 38.496094 37 C 41.002339 37 42.730582 34.277829 41.664062 32.009766 A 1.50015 1.50015 0 0 0 41.650391 31.980469 L 39 26.648438 L 39 19 C 39 10.493798 31.863289 3.6133643 23.277344 4.0175781 z M 23.417969 7.0136719 C 30.338024 6.6878857 36 12.162202 36 19 L 36 27 A 1.50015 1.50015 0 0 0 36.15625 27.667969 L 38.949219 33.289062 C 39.128826 33.674017 38.921017 34 38.496094 34 L 9.5019531 34 C 9.077027 34 8.8709034 33.674574 9.0507812 33.289062 C 9.0507812 33.289062 9.0507812 33.287109 9.0507812 33.287109 L 11.84375 27.667969 A 1.50015 1.50015 0 0 0 12 27 L 12 19.380859 C 12 12.880328 16.979446 7.3169324 23.417969 7.0136719 z M 21 37 L 27 37 C 27 38.674135 25.674135 40 24 40 C 22.325865 40 21 38.674135 21 37 z"/></symbol> 
    <symbol id="settings" xmlns="http://www.w3.org/2000/svg" viewBox="0 0 48 48"><path d="M 24 4 C 22.423103 4 20.902664 4.1994284 19.451172 4.5371094 A 1.50015 1.50015 0 0 0 18.300781 5.8359375 L 17.982422 8.7382812 C 17.878304 9.6893592 17.328913 10.530853 16.5 11.009766 C 15.672739 11.487724 14.66862 11.540667 13.792969 11.15625 L 13.791016 11.15625 L 11.125 9.9824219 A 1.50015 1.50015 0 0 0 9.4257812 10.330078 C 7.3532865 12.539588 5.7626807 15.215064 4.859375 18.201172 A 1.50015 1.50015 0 0 0 5.4082031 19.845703 L 7.7734375 21.580078 C 8.5457929 22.147918 9 23.042801 9 24 C 9 24.95771 8.5458041 25.853342 7.7734375 26.419922 L 5.4082031 28.152344 A 1.50015 1.50015 0 0 0 4.859375 29.796875 C 5.7625845 32.782665 7.3519262 35.460112 9.4257812 37.669922 A 1.50015 1.50015 0 0 0 11.125 38.015625 L 13.791016 36.841797 C 14.667094 36.456509 15.672169 36.511947 16.5 36.990234 C 17.328913 37.469147 17.878304 38.310641 17.982422 39.261719 L 18.300781 42.164062 A 1.50015 1.50015 0 0 0 19.449219 43.460938 C 20.901371 43.799844 22.423103 44 24 44 C 25.576897 44 27.097336 43.800572 28.548828 43.462891 A 1.50015 1.50015 0 0 0 29.699219 42.164062 L 30.017578 39.261719 C 30.121696 38.310641 30.671087 37.469147 31.5 36.990234 C 32.327261 36.512276 33.33138 36.45738 34.207031 36.841797 L 36.875 38.015625 A 1.50015 1.50015 0 0 0 38.574219 37.669922 C 40.646713 35.460412 42.237319 32.782983 43.140625 29.796875 A 1.50015 1.50015 0 0 0 42.591797 28.152344 L 40.226562 26.419922 C 39.454197 25.853342 39 24.95771 39 24 C 39 23.04229 39.454197 22.146658 40.226562 21.580078 L 42.591797 19.847656 A 1.50015 1.50015 0 0 0 43.140625 18.203125 C 42.237319 15.217017 40.646713 12.539588 38.574219 10.330078 A 1.50015 1.50015 0 0 0 36.875 9.984375 L 34.207031 11.158203 C 33.33138 11.54262 32.327261 11.487724 31.5 11.009766 C 30.671087 10.530853 30.121696 9.6893592 30.017578 8.7382812 L 29.699219 5.8359375 A 1.50015 1.50015 0 0 0 28.550781 4.5390625 C 27.098629 4.2001555 25.576897 4 24 4 z M 24 7 C 24.974302 7 25.90992 7.1748796 26.847656 7.3398438 L 27.035156 9.0644531 C 27.243038 10.963375 28.346913 12.652335 30 13.607422 C 31.654169 14.563134 33.668094 14.673009 35.416016 13.904297 L 37.001953 13.207031 C 38.219788 14.669402 39.183985 16.321182 39.857422 18.130859 L 38.451172 19.162109 C 36.911538 20.291529 36 22.08971 36 24 C 36 25.91029 36.911538 27.708471 38.451172 28.837891 L 39.857422 29.869141 C 39.183985 31.678818 38.219788 33.330598 37.001953 34.792969 L 35.416016 34.095703 C 33.668094 33.326991 31.654169 33.436866 30 34.392578 C 28.346913 35.347665 27.243038 37.036625 27.035156 38.935547 L 26.847656 40.660156 C 25.910002 40.82466 24.973817 41 24 41 C 23.025698 41 22.09008 40.82512 21.152344 40.660156 L 20.964844 38.935547 C 20.756962 37.036625 19.653087 35.347665 18 34.392578 C 16.345831 33.436866 14.331906 33.326991 12.583984 34.095703 L 10.998047 34.792969 C 9.7799772 33.330806 8.8159425 31.678964 8.1425781 29.869141 L 9.5488281 28.837891 C 11.088462 27.708471 12 25.91029 12 24 C 12 22.08971 11.087719 20.290363 9.5488281 19.160156 L 8.1425781 18.128906 C 8.8163325 16.318532 9.7814501 14.667839 11 13.205078 L 12.583984 13.902344 C 14.331906 14.671056 16.345831 14.563134 18 13.607422 C 19.653087 12.652335 20.756962 10.963375 20.964844 9.0644531 L 21.152344 7.3398438 C 22.089998 7.1753403 23.026183 7 24 7 z M 24 16 C 19.599487 16 16 19.59949 16 24 C 16 28.40051 19.599487 32 24 32 C 28.400513 32 32 28.40051 32 24 C 32 19.59949 28.400513 16 24 16 z M 24 19 C 26.779194 19 29 21.220808 29 24 C 29 26.779192 26.779194 29 24 29 C 21.220806 29 19 26.779192 19 24 C 19 21.220808 21.220806 19 24 19 z"/></symbol> 
    <symbol id="options" xmlns="http://www.w3.org/2000/svg" viewBox="0 0 48 48"><path d="M 11.476562 3.9785156 A 1.50015 1.50015 0 0 0 10 5.5 L 10 25.306641 C 8.9608181 25.585619 8.0196926 26.033021 7.3789062 26.753906 C 6.4373308 27.813179 6 29.166667 6 30.5 C 6 31.833333 6.4373308 33.186821 7.3789062 34.246094 C 8.0196926 34.966979 8.9608181 35.414381 10 35.693359 L 10 42.5 A 1.50015 1.50015 0 1 0 13 42.5 L 13 35.693359 C 14.039182 35.414381 14.980307 34.966979 15.621094 34.246094 C 16.562669 33.186821 17 31.833333 17 30.5 C 17 29.166667 16.562669 27.813179 15.621094 26.753906 C 14.980307 26.033021 14.039182 25.585619 13 25.306641 L 13 5.5 A 1.50015 1.50015 0 0 0 11.476562 3.9785156 z M 23.976562 3.9785156 A 1.50015 1.50015 0 0 0 22.5 5.5 L 22.5 10.306641 C 21.460818 10.585619 20.519693 11.033021 19.878906 11.753906 C 18.937331 12.813179 18.5 14.166667 18.5 15.5 C 18.5 16.833333 18.937331 18.186821 19.878906 19.246094 C 20.519693 19.966979 21.460818 20.414381 22.5 20.693359 L 22.5 42.5 A 1.50015 1.50015 0 1 0 25.5 42.5 L 25.5 20.693359 C 26.539182 20.414381 27.480307 19.966979 28.121094 19.246094 C 29.062669 18.186821 29.5 16.833333 29.5 15.5 C 29.5 14.166667 29.062669 12.813179 28.121094 11.753906 C 27.480307 11.033021 26.539182 10.585619 25.5 10.306641 L 25.5 5.5 A 1.50015 1.50015 0 0 0 23.976562 3.9785156 z M 36.476562 3.9785156 A 1.50015 1.50015 0 0 0 35 5.5 L 35 27.306641 C 33.960818 27.585619 33.019693 28.033021 32.378906 28.753906 C 31.437331 29.813179 31 31.166667 31 32.5 C 31 33.833333 31.437331 35.186821 32.378906 36.246094 C 33.019693 36.966979 33.960818 37.414381 35 37.693359 L 35 42.5 A 1.50015 1.50015 0 1 0 38 42.5 L 38 37.693359 C 39.039182 37.414381 39.980307 36.966979 40.621094 36.246094 C 41.562669 35.186821 42 33.833333 42 32.5 C 42 31.166667 41.562669 29.813179 40.621094 28.753906 C 39.980307 28.033021 39.039182 27.585619 38 27.306641 L 38 5.5 A 1.50015 1.50015 0 0 0 36.476562 3.9785156 z M 23.90625 13.017578 A 1.50015 1.50015 0 0 0 24.09375 13.017578 C 24.979944 13.041208 25.503107 13.323319 25.878906 13.746094 C 26.270664 14.186821 26.5 14.833333 26.5 15.5 C 26.5 16.166667 26.270664 16.813179 25.878906 17.253906 C 25.487149 17.694633 24.958333 18 24 18 C 23.041667 18 22.512851 17.694633 22.121094 17.253906 C 21.729336 16.813179 21.5 16.166667 21.5 15.5 C 21.5 14.833333 21.729336 14.186821 22.121094 13.746094 C 22.496893 13.323319 23.020056 13.041205 23.90625 13.017578 z M 11.40625 28.017578 A 1.50015 1.50015 0 0 0 11.59375 28.017578 C 12.479944 28.041208 13.003107 28.323319 13.378906 28.746094 C 13.770664 29.186821 14 29.833333 14 30.5 C 14 31.166667 13.770664 31.813179 13.378906 32.253906 C 13.003107 32.676681 12.479944 32.958795 11.59375 32.982422 A 1.50015 1.50015 0 0 0 11.40625 32.982422 C 10.520056 32.958795 9.9968933 32.676681 9.6210938 32.253906 C 9.2293364 31.813179 9 31.166667 9 30.5 C 9 29.833333 9.2293365 29.186821 9.6210938 28.746094 C 9.9968933 28.323319 10.520056 28.041205 11.40625 28.017578 z M 36.40625 30.017578 A 1.50015 1.50015 0 0 0 36.59375 30.017578 C 37.479944 30.041208 38.003107 30.323319 38.378906 30.746094 C 38.770664 31.186821 39 31.833333 39 32.5 C 39 33.166667 38.770664 33.813179 38.378906 34.253906 C 38.003107 34.676681 37.479944 34.958795 36.59375 34.982422 A 1.50015 1.50015 0 0 0 36.40625 34.982422 C 35.520056 34.958795 34.996893 34.676681 34.621094 34.253906 C 34.229336 33.813179 34 33.166667 34 32.5 C 34 31.833333 34.229336 31.186821 34.621094 30.746094 C 34.996893 30.323319 35.520056 30.041205 36.40625 30.017578 z"/></symbol> 
    <symbol id="comment" xmlns="http://www.w3.org/2000/svg" viewBox="0 0 48 48"><path d="M 10.5 7 C 6.9280619 7 4 9.9280619 4 13.5 L 4 30.5 C 4 34.071938 6.9280619 37 10.5 37 L 12 37 L 12 42.5 C 12 44.46599 14.427297 45.67893 16 44.5 L 26 37 L 37.5 37 C 41.071938 37 44 34.071938 44 30.5 L 44 13.5 C 44 9.9280619 41.071938 7 37.5 7 L 10.5 7 z M 10.5 10 L 37.5 10 C 39.450062 10 41 11.549938 41 13.5 L 41 30.5 C 41 32.450062 39.450062 34 37.5 34 L 25.5 34 A 1.50015 1.50015 0 0 0 24.599609 34.300781 L 15 41.5 L 15 35.5 A 1.50015 1.50015 0 0 0 13.5 34 L 10.5 34 C 8.5499381 34 7 32.450062 7 30.5 L 7 13.5 C 7 11.549938 8.5499381 10 10.5 10 z M 15.5 16.998047 A 1.50015 1.50015 0 1 0 15.5 19.998047 L 32.5 19.998047 A 1.50015 1.50015 0 1 0 32.5 16.998047 L 15.5 16.998047 z M 15.5 23.998047 A 1.50015 1.50015 0 1 0 15.5 26.998047 L 28.5 26.998047 A 1.50015 1.50015 0 1 0 28.5 23.998047 L 15.5 23.998047 z"/></symbol> 
    <symbol id="user" xmlns="http://www.w3.org/2000/svg" viewBox="0 0 48 48"><path d="M 24 4 C 18.494917 4 14 8.494921 14 14 C 14 19.505079 18.494917 24 24 24 C 29.505083 24 34 19.505079 34 14 C 34 8.494921 29.505083 4 24 4 z M 24 7 C 27.883764 7 31 10.116238 31 14 C 31 17.883762 27.883764 21 24 21 C 20.116236 21 17 17.883762 17 14 C 17 10.116238 20.116236 7 24 7 z M 12.5 28 C 10.032499 28 8 30.032499 8 32.5 L 8 33.699219 C 8 36.640082 9.8647133 39.277974 12.708984 41.091797 C 15.553256 42.90562 19.444841 44 24 44 C 28.555159 44 32.446744 42.90562 35.291016 41.091797 C 38.135287 39.277974 40 36.640082 40 33.699219 L 40 32.5 C 40 30.032499 37.967501 28 35.5 28 L 12.5 28 z M 12.5 31 L 35.5 31 C 36.346499 31 37 31.653501 37 32.5 L 37 33.699219 C 37 35.364355 35.927463 37.127823 33.677734 38.5625 C 31.428006 39.997177 28.068841 41 24 41 C 19.931159 41 16.571994 39.997177 14.322266 38.5625 C 12.072537 37.127823 11 35.364355 11 33.699219 L 11 32.5 C 11 31.653501 11.653501 31 12.5 31 z"/></symbol> 
    <symbol id="transaction" xmlns="http://www.w3.org/2000/svg" viewBox="0 0 48 48"><path d="M 9.4824219 5 A 1.50015 1.50015 0 0 0 8 6.5 L 8 37 C 6.343 37 5 38.343 5 40 C 5 41.657 6.343 43 8 43 L 9.5 43 L 11 43 L 37 43 L 38.5 43 L 40 43 C 41.657 43 43 41.657 43 40 C 43 38.343 41.657 37 40 37 L 40 6.5 A 1.50015 1.50015 0 0 0 37.667969 5.2519531 L 33.957031 7.7246094 L 29.771484 5.2128906 A 1.50015 1.50015 0 0 0 28.228516 5.2128906 L 24 7.75 L 19.771484 5.2128906 A 1.50015 1.50015 0 0 0 18.228516 5.2128906 L 14.042969 7.7246094 L 10.332031 5.2519531 A 1.50015 1.50015 0 0 0 9.4824219 5 z M 19 8.25 L 23.228516 10.785156 A 1.50015 1.50015 0 0 0 24.771484 10.785156 L 29 8.25 L 33.228516 10.787109 A 1.50015 1.50015 0 0 0 34.832031 10.748047 L 37 9.3027344 L 37 37 L 37 40 L 11 40 L 11 37 L 11 9.3027344 L 13.167969 10.748047 A 1.50015 1.50015 0 0 0 14.771484 10.787109 L 19 8.25 z M 15.5 16 A 1.50015 1.50015 0 1 0 15.5 19 L 32.5 19 A 1.50015 1.50015 0 1 0 32.5 16 L 15.5 16 z M 15.5 24 A 1.50015 1.50015 0 1 0 15.5 27 L 24.5 27 A 1.50015 1.50015 0 1 0 24.5 24 L 15.5 24 z M 30.5 24 A 1.50015 1.50015 0 1 0 30.5 27 L 32.5 27 A 1.50015 1.50015 0 1 0 32.5 24 L 30.5 24 z M 15.5 30 A 1.50015 1.50015 0 1 0 15.5 33 L 22.5 33 A 1.50015 1.50015 0 1 0 22.5 30 L 15.5 30 z M 30.5 30 A 1.50015 1.50015 0 1 0 30.5 33 L 32.5 33 A 1.50015 1.50015 0 1 0 32.5 30 L 30.5 30 z"/></symbol> 
    
    <symbol id="info" xmlns="http://www.w3.org/2000/svg" viewBox="0 0 48 48"><path d="M 24 4 C 12.972066 4 4 12.972074 4 24 C 4 35.027926 12.972066 44 24 44 C 35.027934 44 44 35.027926 44 24 C 44 12.972074 35.027934 4 24 4 z M 24 7 C 33.406615 7 41 14.593391 41 24 C 41 33.406609 33.406615 41 24 41 C 14.593385 41 7 33.406609 7 24 C 7 14.593391 14.593385 7 24 7 z M 24 14 A 2 2 0 0 0 24 18 A 2 2 0 0 0 24 14 z M 23.976562 20.978516 A 1.50015 1.50015 0 0 0 22.5 22.5 L 22.5 33.5 A 1.50015 1.50015 0 1 0 25.5 33.5 L 25.5 22.5 A 1.50015 1.50015 0 0 0 23.976562 20.978516 z"/></symbol> 
    <symbol id="warning" xmlns="http://www.w3.org/2000/svg" viewBox="0 0 48 48"><path d="M 24 5.0527344 C 22.445544 5.0527344 20.891089 5.8107396 20.050781 7.328125 L 4.5703125 35.294922 C 2.9376946 38.244782 5.1480864 42 8.5195312 42 L 39.482422 42 C 42.853867 42 45.064258 38.244782 43.431641 35.294922 L 27.949219 7.328125 C 27.108911 5.8107396 25.554456 5.0527344 24 5.0527344 z M 24 7.9492188 C 24.508544 7.9492188 25.016527 8.2256354 25.324219 8.78125 L 40.806641 36.748047 C 41.400023 37.820187 40.704977 39 39.482422 39 L 8.5195312 39 C 7.2969763 39 6.6019304 37.820187 7.1953125 36.748047 L 22.675781 8.78125 C 22.983473 8.2256354 23.491456 7.9492187 24 7.9492188 z M 23.976562 15.978516 A 1.50015 1.50015 0 0 0 22.5 17.5 L 22.5 27.5 A 1.50015 1.50015 0 1 0 25.5 27.5 L 25.5 17.5 A 1.50015 1.50015 0 0 0 23.976562 15.978516 z M 24 32 A 2 2 0 0 0 24 36 A 2 2 0 0 0 24 32 z"/></symbol> 
    <symbol id="warn" xmlns="http://www.w3.org/2000/svg" viewBox="0 0 48 48"><path d="M 24 4 C 12.972292 4 4 12.972292 4 24 C 4 27.275316 4.8627078 30.334853 6.2617188 33.064453 L 4.09375 40.828125 C 3.5887973 42.631528 5.3719261 44.41261 7.1757812 43.908203 L 14.943359 41.740234 C 17.671046 43.137358 20.726959 44 24 44 C 35.027708 44 44 35.027708 44 24 C 44 12.972292 35.027708 4 24 4 z M 24 7 C 33.406292 7 41 14.593708 41 24 C 41 33.406292 33.406292 41 24 41 C 20.997029 41 18.192258 40.218281 15.744141 38.853516 A 1.50015 1.50015 0 0 0 14.609375 38.71875 L 7.2226562 40.78125 L 9.2851562 33.398438 A 1.50015 1.50015 0 0 0 9.1503906 32.263672 C 7.7836522 29.813476 7 27.004518 7 24 C 7 14.593708 14.593708 7 24 7 z M 23.976562 12.978516 A 1.50015 1.50015 0 0 0 22.5 14.5 L 22.5 26.5 A 1.50015 1.50015 0 1 0 25.5 26.5 L 25.5 14.5 A 1.50015 1.50015 0 0 0 23.976562 12.978516 z M 24 31 A 2 2 0 0 0 24 35 A 2 2 0 0 0 24 31 z"/></symbol> 
    <symbol id="secure" xmlns="http://www.w3.org/2000/svg" viewBox="0 0 48 48"><path d="M 24.048828 2 A 1.50015 1.50015 0 0 0 22.998047 2.3847656 C 22.998047 2.3847656 15.490168 9 6.5 9 A 1.50015 1.50015 0 0 0 5 10.5 L 5 22.759766 C 5 29.437814 8.0894135 40.426402 23.417969 46.882812 A 1.50015 1.50015 0 0 0 24.582031 46.882812 C 39.910586 40.426403 43 29.437814 43 22.759766 L 43 10.5 A 1.50015 1.50015 0 0 0 41.5 9 C 32.509832 9 25.001953 2.3847656 25.001953 2.3847656 A 1.50015 1.50015 0 0 0 24.048828 2 z M 24 5.4277344 C 26.062966 7.0863651 32.111257 11.337189 40 11.875 L 40 22.759766 C 40 28.502023 37.793444 37.765684 24 43.826172 C 10.206556 37.765684 8 28.502023 8 22.759766 L 8 11.875 C 15.888743 11.337189 21.937034 7.0863651 24 5.4277344 z M 24 16 A 5 5 0 0 0 21 25 L 21 30 C 21 31.657 22.343 33 24 33 C 25.657 33 27 31.657 27 30 L 27 24.992188 A 5 5 0 0 0 24 16 z"/></symbol> 

    <symbol id="plus" xmlns="http://www.w3.org/2000/svg" viewBox="0 0 48 48"><path d="M 23.976562 4.9785156 A 1.50015 1.50015 0 0 0 22.5 6.5 L 22.5 22.5 L 6.5 22.5 A 1.50015 1.50015 0 1 0 6.5 25.5 L 22.5 25.5 L 22.5 41.5 A 1.50015 1.50015 0 1 0 25.5 41.5 L 25.5 25.5 L 41.5 25.5 A 1.50015 1.50015 0 1 0 41.5 22.5 L 25.5 22.5 L 25.5 6.5 A 1.50015 1.50015 0 0 0 23.976562 4.9785156 z"/></symbol>
    <symbol id="subtract" xmlns="http://www.w3.org/2000/svg" viewBox="0 0 48 48"><path d="M 6.5 22.5 A 1.50015 1.50015 0 1 0 6.5 25.5 L 41.5 25.5 A 1.50015 1.50015 0 1 0 41.5 22.5 L 6.5 22.5 z"/></symbol>

    
    <symbol id="grid-9" xmlns="http://www.w3.org/2000/svg" viewBox="0 0 48 48"><path d="M 29.476562 5.9785156 A 1.50015 1.50015 0 0 0 29.257812 6 L 11.5 6 C 8.4802259 6 6 8.4802259 6 11.5 L 6 29.253906 A 1.50015 1.50015 0 0 0 6 29.740234 L 6 36.5 C 6 39.519774 8.4802259 42 11.5 42 L 29.253906 42 A 1.50015 1.50015 0 0 0 29.740234 42 L 36.5 42 C 39.519774 42 42 39.519774 42 36.5 L 42 29.746094 A 1.50015 1.50015 0 0 0 42 29.259766 L 42 11.5 C 42 8.4802259 39.519774 6 36.5 6 L 29.746094 6 A 1.50015 1.50015 0 0 0 29.476562 5.9785156 z M 11.5 9 L 17 9 L 17 17 L 9 17 L 9 11.5 C 9 10.101774 10.101774 9 11.5 9 z M 20 9 L 28 9 L 28 17 L 20 17 L 20 9 z M 31 9 L 36.5 9 C 37.898226 9 39 10.101774 39 11.5 L 39 17 L 31 17 L 31 9 z M 9 20 L 17 20 L 17 28 L 9 28 L 9 20 z M 20 20 L 28 20 L 28 28 L 20 28 L 20 20 z M 31 20 L 39 20 L 39 28 L 31 28 L 31 20 z M 9 31 L 17 31 L 17 39 L 11.5 39 C 10.101774 39 9 37.898226 9 36.5 L 9 31 z M 20 31 L 28 31 L 28 39 L 20 39 L 20 31 z M 31 31 L 39 31 L 39 36.5 C 39 37.898226 37.898226 39 36.5 39 L 31 39 L 31 31 z"/></symbol> 
    <symbol id="grid-9-spaced" xmlns="http://www.w3.org/2000/svg" viewBox="0 0 48 48"><path d="M 8.5 6 C 7.1364058 6 6 7.1364058 6 8.5 L 6 13.5 C 6 14.863594 7.1364058 16 8.5 16 L 13.5 16 C 14.863594 16 16 14.863594 16 13.5 L 16 8.5 C 16 7.1364058 14.863594 6 13.5 6 L 8.5 6 z M 21.5 6 C 20.136406 6 19 7.1364058 19 8.5 L 19 13.5 C 19 14.863594 20.136406 16 21.5 16 L 26.5 16 C 27.863594 16 29 14.863594 29 13.5 L 29 8.5 C 29 7.1364058 27.863594 6 26.5 6 L 21.5 6 z M 34.5 6 C 33.136406 6 32 7.1364058 32 8.5 L 32 13.5 C 32 14.863594 33.136406 16 34.5 16 L 39.5 16 C 40.863594 16 42 14.863594 42 13.5 L 42 8.5 C 42 7.1364058 40.863594 6 39.5 6 L 34.5 6 z M 9 9 L 13 9 L 13 13 L 9 13 L 9 9 z M 22 9 L 26 9 L 26 13 L 22 13 L 22 9 z M 35 9 L 39 9 L 39 13 L 35 13 L 35 9 z M 8.5 19 C 7.1364058 19 6 20.136406 6 21.5 L 6 26.5 C 6 27.863594 7.1364058 29 8.5 29 L 13.5 29 C 14.863594 29 16 27.863594 16 26.5 L 16 21.5 C 16 20.136406 14.863594 19 13.5 19 L 8.5 19 z M 21.5 19 C 20.136406 19 19 20.136406 19 21.5 L 19 26.5 C 19 27.863594 20.136406 29 21.5 29 L 26.5 29 C 27.863594 29 29 27.863594 29 26.5 L 29 21.5 C 29 20.136406 27.863594 19 26.5 19 L 21.5 19 z M 34.5 19 C 33.136406 19 32 20.136406 32 21.5 L 32 26.5 C 32 27.863594 33.136406 29 34.5 29 L 39.5 29 C 40.863594 29 42 27.863594 42 26.5 L 42 21.5 C 42 20.136406 40.863594 19 39.5 19 L 34.5 19 z M 9 22 L 13 22 L 13 26 L 9 26 L 9 22 z M 22 22 L 26 22 L 26 26 L 22 26 L 22 22 z M 35 22 L 39 22 L 39 26 L 35 26 L 35 22 z M 8.5 32 C 7.1364058 32 6 33.136406 6 34.5 L 6 39.5 C 6 40.863594 7.1364058 42 8.5 42 L 13.5 42 C 14.863594 42 16 40.863594 16 39.5 L 16 34.5 C 16 33.136406 14.863594 32 13.5 32 L 8.5 32 z M 21.5 32 C 20.136406 32 19 33.136406 19 34.5 L 19 39.5 C 19 40.863594 20.136406 42 21.5 42 L 26.5 42 C 27.863594 42 29 40.863594 29 39.5 L 29 34.5 C 29 33.136406 27.863594 32 26.5 32 L 21.5 32 z M 34.5 32 C 33.136406 32 32 33.136406 32 34.5 L 32 39.5 C 32 40.863594 33.136406 42 34.5 42 L 39.5 42 C 40.863594 42 42 40.863594 42 39.5 L 42 34.5 C 42 33.136406 40.863594 32 39.5 32 L 34.5 32 z M 9 35 L 13 35 L 13 39 L 9 39 L 9 35 z M 22 35 L 26 35 L 26 39 L 22 39 L 22 35 z M 35 35 L 39 35 L 39 39 L 35 39 L 35 35 z"/></symbol> 
    <symbol id="grid-4" xmlns="http://www.w3.org/2000/svg" viewBox="0 0 48 48"><path d="M 11.5 6 C 8.4802259 6 6 8.4802259 6 11.5 L 6 36.5 C 6 39.519774 8.4802259 42 11.5 42 L 36.5 42 C 39.519774 42 42 39.519774 42 36.5 L 42 11.5 C 42 8.4802259 39.519774 6 36.5 6 L 11.5 6 z M 11.5 9 L 22.5 9 L 22.5 22.5 L 9 22.5 L 9 11.5 C 9 10.101774 10.101774 9 11.5 9 z M 25.5 9 L 36.5 9 C 37.898226 9 39 10.101774 39 11.5 L 39 22.5 L 25.5 22.5 L 25.5 9 z M 9 25.5 L 22.5 25.5 L 22.5 39 L 11.5 39 C 10.101774 39 9 37.898226 9 36.5 L 9 25.5 z M 25.5 25.5 L 39 25.5 L 39 36.5 C 39 37.898226 37.898226 39 36.5 39 L 25.5 39 L 25.5 25.5 z"/></symbol> 
    <symbol id="grid-4-spaced" xmlns="http://www.w3.org/2000/svg" viewBox="0 0 48 48"><path d="M 10.5 6 C 8.0324991 6 6 8.0324991 6 10.5 L 6 18.5 C 6 20.967501 8.0324991 23 10.5 23 L 18.5 23 C 20.967501 23 23 20.967501 23 18.5 L 23 10.5 C 23 8.0324991 20.967501 6 18.5 6 L 10.5 6 z M 29.5 6 C 27.032499 6 25 8.0324991 25 10.5 L 25 18.5 C 25 20.967501 27.032499 23 29.5 23 L 37.5 23 C 39.967501 23 42 20.967501 42 18.5 L 42 10.5 C 42 8.0324991 39.967501 6 37.5 6 L 29.5 6 z M 10.5 9 L 18.5 9 C 19.346499 9 20 9.6535009 20 10.5 L 20 18.5 C 20 19.346499 19.346499 20 18.5 20 L 10.5 20 C 9.6535009 20 9 19.346499 9 18.5 L 9 10.5 C 9 9.6535009 9.6535009 9 10.5 9 z M 29.5 9 L 37.5 9 C 38.346499 9 39 9.6535009 39 10.5 L 39 18.5 C 39 19.346499 38.346499 20 37.5 20 L 29.5 20 C 28.653501 20 28 19.346499 28 18.5 L 28 10.5 C 28 9.6535009 28.653501 9 29.5 9 z M 10.5 25 C 8.0324991 25 6 27.032499 6 29.5 L 6 37.5 C 6 39.967501 8.0324991 42 10.5 42 L 18.5 42 C 20.967501 42 23 39.967501 23 37.5 L 23 29.5 C 23 27.032499 20.967501 25 18.5 25 L 10.5 25 z M 29.5 25 C 27.032499 25 25 27.032499 25 29.5 L 25 37.5 C 25 39.967501 27.032499 42 29.5 42 L 37.5 42 C 39.967501 42 42 39.967501 42 37.5 L 42 29.5 C 42 27.032499 39.967501 25 37.5 25 L 29.5 25 z M 10.5 28 L 18.5 28 C 19.346499 28 20 28.653501 20 29.5 L 20 37.5 C 20 38.346499 19.346499 39 18.5 39 L 10.5 39 C 9.6535009 39 9 38.346499 9 37.5 L 9 29.5 C 9 28.653501 9.6535009 28 10.5 28 z M 29.5 28 L 37.5 28 C 38.346499 28 39 28.653501 39 29.5 L 39 37.5 C 39 38.346499 38.346499 39 37.5 39 L 29.5 39 C 28.653501 39 28 38.346499 28 37.5 L 28 29.5 C 28 28.653501 28.653501 28 29.5 28 z"/></symbol> 
    <symbol id="list" xmlns="http://www.w3.org/2000/svg" viewBox="0 0 48 48"><path d="M 7.5 7 C 6.1364058 7 5 8.1364058 5 9.5 L 5 14.5 C 5 15.863594 6.1364058 17 7.5 17 L 12.5 17 C 13.863594 17 15 15.863594 15 14.5 L 15 9.5 C 15 8.1364058 13.863594 7 12.5 7 L 7.5 7 z M 8 10 L 12 10 L 12 14 L 8 14 L 8 10 z M 19.5 11 A 1.50015 1.50015 0 1 0 19.5 14 L 41.5 14 A 1.50015 1.50015 0 1 0 41.5 11 L 19.5 11 z M 7.5 19 C 6.1364058 19 5 20.136406 5 21.5 L 5 26.5 C 5 27.863594 6.1364058 29 7.5 29 L 12.5 29 C 13.863594 29 15 27.863594 15 26.5 L 15 21.5 C 15 20.136406 13.863594 19 12.5 19 L 7.5 19 z M 8 22 L 12 22 L 12 26 L 8 26 L 8 22 z M 19.5 23 A 1.50015 1.50015 0 1 0 19.5 26 L 41.5 26 A 1.50015 1.50015 0 1 0 41.5 23 L 19.5 23 z M 7.5 31 C 6.1364058 31 5 32.136406 5 33.5 L 5 38.5 C 5 39.863594 6.1364058 41 7.5 41 L 12.5 41 C 13.863594 41 15 39.863594 15 38.5 L 15 33.5 C 15 32.136406 13.863594 31 12.5 31 L 7.5 31 z M 8 34 L 12 34 L 12 38 L 8 38 L 8 34 z M 19.5 35 A 1.50015 1.50015 0 1 0 19.5 38 L 41.5 38 A 1.50015 1.50015 0 1 0 41.5 35 L 19.5 35 z"/></symbol> 

    <symbol id="cart-add" xmlns="http://www.w3.org/2000/svg" viewBox="0 0 48 48"><path d="M 3.5 6 A 1.50015 1.50015 0 1 0 3.5 9 L 6.2558594 9 C 6.9837923 9 7.5905865 9.5029243 7.7285156 10.21875 L 8.0273438 11.78125 L 11.251953 28.716797 C 11.835068 31.772321 14.527135 34 17.638672 34 L 36.361328 34 C 39.472865 34 42.166064 31.773177 42.748047 28.716797 L 45.972656 11.78125 A 1.50015 1.50015 0 0 0 44.5 10 L 10.740234 10 L 10.675781 9.6582031 C 10.272657 7.5455321 8.4069705 6 6.2558594 6 L 3.5 6 z M 11.3125 13 L 42.6875 13 L 39.800781 28.15625 C 39.484764 29.81587 38.051791 31 36.361328 31 L 17.638672 31 C 15.948808 31 14.516781 29.8158 14.199219 28.15625 L 14.199219 28.154297 L 11.3125 13 z M 26.476562 15.978516 A 1.50015 1.50015 0 0 0 25 17.5 L 25 20 L 22.5 20 A 1.50015 1.50015 0 1 0 22.5 23 L 25 23 L 25 25.5 A 1.50015 1.50015 0 1 0 28 25.5 L 28 23 L 30.5 23 A 1.50015 1.50015 0 1 0 30.5 20 L 28 20 L 28 17.5 A 1.50015 1.50015 0 0 0 26.476562 15.978516 z M 20 36 A 3 3 0 0 0 20 42 A 3 3 0 0 0 20 36 z M 34 36 A 3 3 0 0 0 34 42 A 3 3 0 0 0 34 36 z"/></symbol> 
    <symbol id="cart" xmlns="http://www.w3.org/2000/svg" viewBox="0 0 48 48"><path d="M 3.5 6 A 1.50015 1.50015 0 1 0 3.5 9 L 6.2558594 9 C 6.9837923 9 7.5905865 9.5029243 7.7285156 10.21875 L 8.0273438 11.78125 L 11.251953 28.716797 C 11.835068 31.772321 14.527135 34 17.638672 34 L 36.361328 34 C 39.472865 34 42.166064 31.773177 42.748047 28.716797 L 45.972656 11.78125 A 1.50015 1.50015 0 0 0 44.5 10 L 10.740234 10 L 10.675781 9.6582031 C 10.272657 7.5455321 8.4069705 6 6.2558594 6 L 3.5 6 z M 11.3125 13 L 42.6875 13 L 39.800781 28.15625 C 39.484764 29.81587 38.051791 31 36.361328 31 L 17.638672 31 C 15.948808 31 14.516781 29.8158 14.199219 28.15625 L 14.199219 28.154297 L 11.3125 13 z M 23.5 16 A 1.50015 1.50015 0 1 0 23.5 19 L 31.5 19 A 1.50015 1.50015 0 1 0 31.5 16 L 23.5 16 z M 20 36 A 3 3 0 0 0 20 42 A 3 3 0 0 0 20 36 z M 34 36 A 3 3 0 0 0 34 42 A 3 3 0 0 0 34 36 z"/></symbol> 
    <symbol id="list" xmlns="http://www.w3.org/2000/svg" viewBox="0 0 48 48"><path d="M 7.5 7 C 6.1364058 7 5 8.1364058 5 9.5 L 5 14.5 C 5 15.863594 6.1364058 17 7.5 17 L 12.5 17 C 13.863594 17 15 15.863594 15 14.5 L 15 9.5 C 15 8.1364058 13.863594 7 12.5 7 L 7.5 7 z M 8 10 L 12 10 L 12 14 L 8 14 L 8 10 z M 19.5 11 A 1.50015 1.50015 0 1 0 19.5 14 L 41.5 14 A 1.50015 1.50015 0 1 0 41.5 11 L 19.5 11 z M 7.5 19 C 6.1364058 19 5 20.136406 5 21.5 L 5 26.5 C 5 27.863594 6.1364058 29 7.5 29 L 12.5 29 C 13.863594 29 15 27.863594 15 26.5 L 15 21.5 C 15 20.136406 13.863594 19 12.5 19 L 7.5 19 z M 8 22 L 12 22 L 12 26 L 8 26 L 8 22 z M 19.5 23 A 1.50015 1.50015 0 1 0 19.5 26 L 41.5 26 A 1.50015 1.50015 0 1 0 41.5 23 L 19.5 23 z M 7.5 31 C 6.1364058 31 5 32.136406 5 33.5 L 5 38.5 C 5 39.863594 6.1364058 41 7.5 41 L 12.5 41 C 13.863594 41 15 39.863594 15 38.5 L 15 33.5 C 15 32.136406 13.863594 31 12.5 31 L 7.5 31 z M 8 34 L 12 34 L 12 38 L 8 38 L 8 34 z M 19.5 35 A 1.50015 1.50015 0 1 0 19.5 38 L 41.5 38 A 1.50015 1.50015 0 1 0 41.5 35 L 19.5 35 z"/></symbol> 

    <symbol id="apple" xmlns="http://www.w3.org/2000/svg" viewBox="0 0 48 48"><path d="M 31.453125 0 C 31.328859 0.004 31.204281 0.02284375 31.082031 0.05859375 C 30.850031 0.12659375 28.752656 0.78046875 26.597656 2.9804688 C 24.308656 5.3174688 24.018812 8.2402813 24.007812 8.3632812 C 23.963813 8.8442812 24.151625 9.3168125 24.515625 9.6328125 C 24.791625 9.8728125 25.142 10 25.5 10 C 25.614 10 25.72975 9.9879375 25.84375 9.9609375 C 25.96275 9.9329375 28.780953 9.245375 30.751953 6.609375 C 32.595953 4.146375 32.949375 1.9519375 32.984375 1.7109375 C 33.056375 1.2059375 32.866422 0.7001875 32.482422 0.3671875 C 32.194422 0.1159375 31.825922 -0.012 31.453125 0 z M 17 11 C 11.010201 11 6 16.324462 6 23.5 C 6 29.083333 7.8433115 34.076668 10.099609 37.726562 C 11.227759 39.55151 12.456768 41.042182 13.673828 42.126953 C 14.890888 43.211724 16.041667 44 17.5 44 C 19.333333 44 20.659178 43.347772 21.701172 42.857422 C 22.743166 42.367072 23.535714 42 25 42 C 26.464286 42 27.256834 42.367072 28.298828 42.857422 C 29.340822 43.347772 30.666667 44 32.5 44 C 34.468484 44 35.925594 42.666795 37.517578 40.847656 C 39.109562 39.028518 40.679063 36.529079 41.888672 33.566406 A 1.50015 1.50015 0 0 0 40.986328 31.582031 C 38.151738 30.610218 36 27.596723 36 23.75 C 36 20.406316 37.532491 17.589086 39.753906 16.296875 A 1.50015 1.50015 0 0 0 40.041016 13.919922 C 38.127926 12.074018 35.698879 11 33 11 C 30.964286 11 29.590822 11.652228 28.548828 12.142578 C 27.506834 12.632928 26.75 13 25 13 C 23.25 13 22.493166 12.632928 21.451172 12.142578 C 20.409178 11.652228 19.035714 11 17 11 z M 17 14 C 18.464286 14 19.090822 14.347772 20.173828 14.857422 C 21.256834 15.367072 22.75 16 25 16 C 27.25 16 28.743166 15.367072 29.826172 14.857422 C 30.909178 14.347772 31.535714 14 33 14 C 34.330615 14 35.453764 14.444031 36.515625 15.095703 C 34.300504 17.207268 33 20.324458 33 23.75 C 33 28.07909 35.217905 31.744564 38.525391 33.599609 C 37.529119 35.719739 36.380533 37.590408 35.259766 38.871094 C 33.92575 40.395455 32.530516 41 32.5 41 C 31.333333 41 30.659178 40.652228 29.576172 40.142578 C 28.493166 39.632928 27.035714 39 25 39 C 22.964286 39 21.506834 39.632928 20.423828 40.142578 C 19.340822 40.652228 18.666667 41 17.5 41 C 17.458333 41 16.609112 40.725776 15.669922 39.888672 C 14.730732 39.051568 13.647241 37.76099 12.650391 36.148438 C 10.656689 32.923332 9 28.416667 9 23.5 C 9 17.675538 12.771799 14 17 14 z"/></symbol> 
    <symbol id="chrome" xmlns="http://www.w3.org/2000/svg" viewBox="0 0 48 48"><path d="M 24 4 C 12.972066 4 4 12.972074 4 24 C 4 35.027926 12.972066 44 24 44 C 35.027934 44 44 35.027926 44 24 C 44 12.972074 35.027934 4 24 4 z M 24 7 C 30.093981 7 35.411744 10.197766 38.412109 15 L 24 15 C 19.987984 15 16.692717 17.702242 15.539062 21.34375 L 10.847656 13.21875 C 13.962354 9.4206228 18.691211 7 24 7 z M 8.9921875 16.005859 L 16.205078 28.5 L 16.335938 28.423828 C 17.898184 31.105522 20.686869 33 24 33 C 24.694552 33 25.310667 32.75208 25.960938 32.601562 L 21.251953 40.759766 C 13.160942 39.447886 7 32.468398 7 24 C 7 21.106831 7.7237264 18.3878 8.9921875 16.005859 z M 24 18 C 27.331479 18 30 20.668523 30 24 C 30 27.331477 27.331479 30 24 30 C 20.668521 30 18 27.331477 18 24 C 18 20.668523 20.668521 18 24 18 z M 30.599609 18 L 39.894531 18 C 40.597492 19.867024 41 21.88356 41 24 C 41 33.205373 33.722572 40.65535 24.595703 40.970703 L 31.794922 28.5 L 31.664062 28.423828 C 32.437219 27.096655 33 25.639666 33 24 C 33 21.678403 32.05456 19.600076 30.599609 18 z"/></symbol> 
    <symbol id="whatsapp" xmlns="http://www.w3.org/2000/svg" viewBox="0 0 48 48"><path d="M 24 3.9980469 C 12.972292 3.9980469 4 12.970339 4 23.998047 C 4 27.273363 4.8627078 30.334853 6.2617188 33.064453 L 4.09375 40.826172 C 3.5887973 42.629575 5.3719261 44.41261 7.1757812 43.908203 L 14.943359 41.740234 C 17.670736 43.136312 20.727751 43.998047 24 43.998047 C 35.027708 43.998047 44 35.025755 44 23.998047 C 44 12.970339 35.027708 3.9980469 24 3.9980469 z M 24 6.9980469 C 33.406292 6.9980469 41 14.591755 41 23.998047 C 41 33.404339 33.406292 40.998047 24 40.998047 C 20.998416 40.998047 18.190601 40.217527 15.742188 38.853516 A 1.50015 1.50015 0 0 0 14.609375 38.71875 L 7.2226562 40.779297 L 9.2851562 33.396484 A 1.50015 1.50015 0 0 0 9.1503906 32.261719 C 7.7836522 29.811523 7 27.002565 7 23.998047 C 7 14.591755 14.593708 6.9980469 24 6.9980469 z M 17.240234 15 C 16.921234 15 16.405797 15.119656 15.966797 15.597656 C 15.528797 16.073656 14.294922 17.228125 14.294922 19.578125 C 14.294922 21.928125 16.005141 24.197578 16.244141 24.517578 C 16.482141 24.834578 19.547344 29.812562 24.402344 31.726562 C 28.436344 33.316563 29.256812 32.999922 30.132812 32.919922 C 31.008813 32.841922 32.959422 31.766391 33.357422 30.650391 C 33.755422 29.534391 33.755672 28.579813 33.638672 28.382812 C 33.519672 28.183812 33.200656 28.063219 32.722656 27.824219 C 32.245656 27.585219 29.898937 26.430484 29.460938 26.271484 C 29.022938 26.112484 28.702766 26.031766 28.384766 26.509766 C 28.066766 26.987766 27.152047 28.062859 26.873047 28.380859 C 26.594047 28.700859 26.315891 28.740953 25.837891 28.501953 C 25.358891 28.260953 23.822094 27.757859 21.996094 26.130859 C 20.576094 24.865859 19.620797 23.302219 19.341797 22.824219 C 19.063797 22.348219 19.311781 22.086609 19.550781 21.849609 C 19.765781 21.635609 20.028578 21.292672 20.267578 21.013672 C 20.504578 20.734672 20.583188 20.53675 20.742188 20.21875 C 20.901188 19.90175 20.822125 19.621813 20.703125 19.382812 C 20.584125 19.143813 19.655469 16.780938 19.230469 15.835938 C 18.873469 15.041938 18.49725 15.024719 18.15625 15.011719 C 17.87825 15.000719 17.558234 15 17.240234 15 z"/></symbol> 
    <symbol id="telegram" xmlns="http://www.w3.org/2000/svg" viewBox="0 0 48 48"><path d="M39.175,10.016c1.687,0,2.131,1.276,1.632,4.272c-0.571,3.426-2.216,14.769-3.528,21.83 c-0.502,2.702-1.407,3.867-2.724,3.867c-0.724,0-1.572-0.352-2.546-0.995c-1.32-0.872-7.984-5.279-9.431-6.314 c-1.32-0.943-3.141-2.078-0.857-4.312c0.813-0.796,6.14-5.883,10.29-9.842c0.443-0.423,0.072-1.068-0.42-1.068 c-0.112,0-0.231,0.034-0.347,0.111c-5.594,3.71-13.351,8.859-14.338,9.53c-0.987,0.67-1.949,1.1-3.231,1.1 c-0.655,0-1.394-0.112-2.263-0.362c-1.943-0.558-3.84-1.223-4.579-1.477c-2.845-0.976-2.17-2.241,0.593-3.457 c11.078-4.873,25.413-10.815,27.392-11.637C36.746,10.461,38.178,10.016,39.175,10.016 M39.175,7.016L39.175,7.016 c-1.368,0-3.015,0.441-5.506,1.474L33.37,8.614C22.735,13.03,13.092,17.128,6.218,20.152c-1.074,0.473-4.341,1.91-4.214,4.916 c0.054,1.297,0.768,3.065,3.856,4.124l0.228,0.078c0.862,0.297,2.657,0.916,4.497,1.445c1.12,0.322,2.132,0.478,3.091,0.478 c1.664,0,2.953-0.475,3.961-1.028c-0.005,0.168-0.001,0.337,0.012,0.507c0.182,2.312,1.97,3.58,3.038,4.338l0.149,0.106 c1.577,1.128,8.714,5.843,9.522,6.376c1.521,1.004,2.894,1.491,4.199,1.491c2.052,0,4.703-1.096,5.673-6.318 c0.921-4.953,1.985-11.872,2.762-16.924c0.331-2.156,0.603-3.924,0.776-4.961c0.349-2.094,0.509-4.466-0.948-6.185 C42.208,7.875,41.08,7.016,39.175,7.016L39.175,7.016z"/></symbol> 
    <symbol id="youtube" xmlns="http://www.w3.org/2000/svg" viewBox="0 0 48 48"><path d="M 23.857422 8.5 C 17.504717 8.5 11.602344 8.9526234 8.234375 9.65625 A 1.50015 1.50015 0 0 0 8.2128906 9.6621094 C 5.6754768 10.230693 3.2861897 12.048234 2.7832031 14.894531 A 1.50015 1.50015 0 0 0 2.78125 14.90625 C 2.394836 17.200265 2 20.190694 2 24.5 C 2 28.801151 2.3961903 31.712324 2.8847656 34.126953 C 3.4000756 36.889296 5.7342165 38.761817 8.3105469 39.337891 A 1.50015 1.50015 0 0 0 8.3476562 39.347656 C 11.86271 40.040284 17.598467 40.5 23.951172 40.5 C 30.303877 40.5 36.042686 40.04028 39.558594 39.347656 A 1.50015 1.50015 0 0 0 39.595703 39.337891 C 42.133117 38.769306 44.522404 36.951766 45.025391 34.105469 A 1.50015 1.50015 0 0 0 45.029297 34.083984 C 45.409789 31.743169 45.902812 28.755621 46 24.439453 A 1.50015 1.50015 0 0 0 46 24.40625 C 46 20.087697 45.50571 17.078675 45.023438 14.695312 C 44.512192 11.927074 42.175378 10.049478 39.595703 9.4726562 A 1.50015 1.50015 0 0 0 39.476562 9.4511719 C 36.0464 8.9689502 30.211115 8.5 23.857422 8.5 z M 23.857422 11.5 C 30.017774 11.5 35.726167 11.961361 38.966797 12.412109 C 40.559483 12.778239 41.824973 13.890643 42.074219 15.240234 A 1.50015 1.50015 0 0 0 42.078125 15.265625 C 42.543492 17.56209 42.996187 20.292628 42.998047 24.384766 C 42.904597 28.49001 42.450899 31.244675 42.070312 33.585938 C 41.810413 35.044446 40.592 36.034419 38.953125 36.40625 C 35.805209 37.023818 30.142051 37.5 23.951172 37.5 C 17.759247 37.5 12.097629 37.021978 8.9511719 36.404297 C 7.3525116 36.041193 6.081938 34.925434 5.8320312 33.572266 A 1.50015 1.50015 0 0 0 5.8261719 33.546875 C 5.3660305 31.276194 5 28.628694 5 24.5 C 5 20.378688 5.3654221 17.62199 5.7363281 15.417969 C 5.9947549 13.955585 7.2164425 12.963194 8.859375 12.591797 C 11.774266 11.984227 17.659955 11.5 23.857422 11.5 z M 20.460938 16.023438 C 18.668395 16.081606 17 17.525347 17 19.486328 L 17 28.515625 C 17 31.130266 19.966455 32.825862 22.238281 31.542969 A 1.50015 1.50015 0 0 0 22.238281 31.541016 L 30.228516 27.027344 C 32.516764 25.734577 32.516764 22.265423 30.228516 20.972656 L 22.238281 16.458984 C 21.670325 16.138261 21.058451 16.004047 20.460938 16.023438 z M 20.472656 18.980469 C 20.562791 18.985356 20.661175 19.013538 20.761719 19.070312 L 28.751953 23.585938 C 29.157705 23.815171 29.157705 24.186783 28.751953 24.416016 L 20.761719 28.929688 C 20.359545 29.156793 20 28.944984 20 28.515625 L 20 19.486328 C 20 19.271649 20.09013 19.111638 20.230469 19.033203 C 20.300636 18.993988 20.382521 18.975581 20.472656 18.980469 z"/></symbol> 
    <symbol id="dribbble" xmlns="http://www.w3.org/2000/svg" viewBox="0 0 48 48"><path d="M 24 4 C 12.972066 4 4 12.972074 4 24 C 4 35.027926 12.972066 44 24 44 C 35.027934 44 44 35.027926 44 24 C 44 12.972074 35.027934 4 24 4 z M 24 7 C 28.142307 7 31.929518 8.4763377 34.875 10.927734 C 32.122374 13.351092 28.974768 15.323142 25.580078 16.835938 C 23.811529 13.61959 21.891654 10.500767 19.736328 7.5585938 C 21.100562 7.2070927 22.524179 7 24 7 z M 16.785156 8.6171875 C 18.997535 11.542724 20.949628 14.664262 22.746094 17.886719 C 19.050465 19.170625 15.137713 20 11 20 C 9.8323552 20 8.6813446 19.922155 7.5390625 19.810547 C 8.7969115 14.835264 12.230939 10.75149 16.785156 8.6171875 z M 37.001953 13.046875 C 39.461176 15.964926 40.9535 19.721786 40.992188 23.837891 C 38.832662 23.296195 36.575941 23 34.25 23 C 32.4219 23 30.655764 23.235969 28.925781 23.574219 C 28.323231 22.178362 27.663283 20.821807 26.984375 19.46875 C 30.643681 17.813906 34.040456 15.676234 37.001953 13.046875 z M 24.177734 20.570312 C 24.811258 21.821635 25.45011 23.063845 26.015625 24.353516 C 19.953229 26.24965 14.749259 30.09875 11.257812 35.238281 C 8.6153572 32.243192 7 28.319322 7 24 C 7 23.585614 7.0335222 23.180292 7.0625 22.773438 C 8.3577913 22.906235 9.665848 23 11 23 C 15.643379 23 20.045102 22.063249 24.177734 20.570312 z M 34.25 26 C 36.498791 26 38.668342 26.319367 40.738281 26.882812 C 39.953494 31.489342 37.336086 35.457573 33.644531 38.001953 C 32.755328 34.064901 31.510607 30.269114 30.085938 26.5625 C 31.460152 26.325929 32.807024 26 34.25 26 z M 27.091797 27.125 C 28.662683 31.125628 30.006215 35.241408 30.90625 39.53125 C 28.795754 40.468547 26.462824 41 24 41 C 20.010678 41 16.357113 39.622608 13.460938 37.332031 C 16.608874 32.477365 21.430763 28.841138 27.091797 27.125 z"/></symbol> 
    <symbol id="facebook" xmlns="http://www.w3.org/2000/svg" viewBox="0 0 48 48"><path d="M 24 4 C 12.972066 4 4 12.972074 4 24 C 4 35.027926 12.972066 44 24 44 C 35.027934 44 44 35.027926 44 24 C 44 12.972074 35.027934 4 24 4 z M 24 7 C 33.406615 7 41 14.593391 41 24 C 41 32.380773 34.967178 39.306373 27 40.720703 L 27 29 L 30.625 29 C 31.129 29 31.555188 28.623047 31.617188 28.123047 L 31.992188 25.123047 C 32.028188 24.839047 31.938047 24.553891 31.748047 24.337891 C 31.559047 24.122891 31.287 24 31 24 L 27 24 L 27 20.5 C 27 19.397 27.897 18.5 29 18.5 L 31 18.5 C 31.552 18.5 32 18.053 32 17.5 L 32 14.125 C 32 13.607 31.604844 13.174906 31.089844 13.128906 C 31.030844 13.123906 29.619984 13 27.833984 13 C 23.426984 13 21 15.616187 21 20.367188 L 21 24 L 17 24 C 16.448 24 16 24.447 16 25 L 16 28 C 16 28.553 16.448 29 17 29 L 21 29 L 21 40.720703 C 13.032822 39.306373 7 32.380773 7 24 C 7 14.593391 14.593385 7 24 7 z"/></symbol> 
    <symbol id="instagram" xmlns="http://www.w3.org/2000/svg" viewBox="0 0 48 48"><path d="M 16.5 5 C 10.16639 5 5 10.16639 5 16.5 L 5 31.5 C 5 37.832757 10.166209 43 16.5 43 L 31.5 43 C 37.832938 43 43 37.832938 43 31.5 L 43 16.5 C 43 10.166209 37.832757 5 31.5 5 L 16.5 5 z M 16.5 8 L 31.5 8 C 36.211243 8 40 11.787791 40 16.5 L 40 31.5 C 40 36.211062 36.211062 40 31.5 40 L 16.5 40 C 11.787791 40 8 36.211243 8 31.5 L 8 16.5 C 8 11.78761 11.78761 8 16.5 8 z M 34 12 C 32.895 12 32 12.895 32 14 C 32 15.105 32.895 16 34 16 C 35.105 16 36 15.105 36 14 C 36 12.895 35.105 12 34 12 z M 24 14 C 18.495178 14 14 18.495178 14 24 C 14 29.504822 18.495178 34 24 34 C 29.504822 34 34 29.504822 34 24 C 34 18.495178 29.504822 14 24 14 z M 24 17 C 27.883178 17 31 20.116822 31 24 C 31 27.883178 27.883178 31 24 31 C 20.116822 31 17 27.883178 17 24 C 17 20.116822 20.116822 17 24 17 z"/></symbol> 
    <symbol id="twitter" xmlns="http://www.w3.org/2000/svg" viewBox="0 0 48 48"><path d="M 32 6 C 26.568583 6 22.160643 10.388731 22.042969 15.792969 C 17.240727 15.216998 14.113589 13.421507 12.195312 11.652344 C 10.067982 9.6903754 9.3945312 7.9472656 9.3945312 7.9472656 A 1.50015 1.50015 0 0 0 6.8007812 7.5996094 C 6.8007812 7.5996094 5 10 5 13.5 C 5 15.500985 5.6317952 16.981554 6.3847656 18.236328 C 6.3570276 18.223338 6.1699219 18.158203 6.1699219 18.158203 A 1.50015 1.50015 0 0 0 4.0058594 19.636719 C 4.0058594 19.636719 4.5832039 23.856843 8.5507812 26.941406 L 8.1367188 27.044922 A 1.50015 1.50015 0 0 0 7.1972656 29.244141 C 7.1972656 29.244141 7.8700527 30.382221 9.2792969 31.580078 C 10.11485 32.290298 11.34227 33.023169 12.789062 33.701172 C 11.012271 34.35044 8.362818 35 4.5 35 A 1.50015 1.50015 0 0 0 3.3710938 37.488281 C 3.3710938 37.488281 4.5173251 38.751002 6.7832031 39.849609 C 9.0490812 40.948217 12.539474 42 17.5 42 C 26.219697 42 32.484656 37.817151 36.394531 32.515625 C 40.304407 27.214099 42 20.861111 42 16 C 42 15.691547 41.980739 15.387437 41.953125 15.085938 C 44.064371 13.051602 44.856626 11.522235 44.894531 11.447266 C 45.084531 11.066266 45.01375 10.608688 44.71875 10.304688 C 44.42475 9.9996875 43.969031 9.9137969 43.582031 10.091797 L 43.419922 10.166016 C 43.280922 10.230016 43.141953 10.294422 43.001953 10.357422 C 43.408953 9.7084219 43.730125 9.014875 43.953125 8.296875 C 44.077125 7.900875 43.943234 7.4669375 43.615234 7.2109375 C 43.287234 6.9549375 42.835469 6.9275312 42.480469 7.1445312 C 41.258221 7.8873594 40.086652 8.40739 38.867188 8.7558594 C 37.072578 7.0534724 34.656873 6 32 6 z M 32 9 C 35.883178 9 39 12.116822 39 16 C 39 20.138889 37.445593 26.035901 33.980469 30.734375 C 30.515344 35.432849 25.280303 39 17.5 39 C 13.7348 39 11.230189 38.318942 9.3535156 37.582031 C 11.319341 37.276755 13.011947 36.869367 14.228516 36.398438 C 16.338182 35.581792 17.476563 34.638672 17.476562 34.638672 A 1.50015 1.50015 0 0 0 16.863281 32.044922 C 14.140556 31.364241 12.394328 30.263307 11.298828 29.345703 L 12.863281 28.955078 A 1.50015 1.50015 0 0 0 13.039062 26.099609 C 9.7939415 24.851486 8.4312292 23.086373 7.734375 21.607422 C 8.5823538 21.782967 9.3718961 22 10.5 22 A 1.50015 1.50015 0 0 0 11.169922 19.158203 C 11.169922 19.158203 8 17.7 8 13.5 C 8 12.745947 8.2088435 12.268355 8.3613281 11.697266 C 8.884507 12.400354 9.3156815 13.07859 10.160156 13.857422 C 12.734824 16.231954 16.990366 18.653154 23.419922 18.998047 A 1.50015 1.50015 0 0 0 25 17.5 L 25 16 C 25 12.116822 28.116822 9 32 9 z"/></symbol> 
    <symbol id="linkedin" xmlns="http://www.w3.org/2000/svg" viewBox="0 0 48 48"><path d="M 11.5 6 C 8.4802259 6 6 8.4802259 6 11.5 L 6 36.5 C 6 39.519774 8.4802259 42 11.5 42 L 36.5 42 C 39.519774 42 42 39.519774 42 36.5 L 42 11.5 C 42 8.4802259 39.519774 6 36.5 6 L 11.5 6 z M 11.5 9 L 36.5 9 C 37.898226 9 39 10.101774 39 11.5 L 39 36.5 C 39 37.898226 37.898226 39 36.5 39 L 11.5 39 C 10.101774 39 9 37.898226 9 36.5 L 9 11.5 C 9 10.101774 10.101774 9 11.5 9 z M 15.5 13 A 2.5 2.5 0 0 0 15.5 18 A 2.5 2.5 0 0 0 15.5 13 z M 14 20 C 13.447 20 13 20.447 13 21 L 13 34 C 13 34.553 13.447 35 14 35 L 17 35 C 17.553 35 18 34.553 18 34 L 18 21 C 18 20.447 17.553 20 17 20 L 14 20 z M 21 20 C 20.447 20 20 20.447 20 21 L 20 34 C 20 34.553 20.447 35 21 35 L 24 35 C 24.553 35 25 34.553 25 34 L 25 26.5 C 25 25.121 26.121 24 27.5 24 C 28.879 24 30 25.121 30 26.5 L 30 34 C 30 34.553 30.447 35 31 35 L 34 35 C 34.553 35 35 34.553 35 34 L 35 26 C 35 22.691 32.309 20 29 20 C 27.462 20 26.063 20.586016 25 21.541016 L 25 21 C 25 20.447 24.553 20 24 20 L 21 20 z"/></symbol> 
    <symbol id="github" xmlns="http://www.w3.org/2000/svg" viewBox="0 0 48 48"><path d="M 24 4 C 12.972066 4 4 12.972074 4 24 C 4 35.027926 12.972066 44 24 44 C 35.027934 44 44 35.027926 44 24 C 44 12.972074 35.027934 4 24 4 z M 24 7 C 33.406615 7 41 14.593391 41 24 C 41 31.66536 35.956939 38.122519 29 40.251953 L 29 35.136719 C 29 33.226635 27.899316 31.588619 26.308594 30.773438 A 10 8 0 0 0 32.4375 18.720703 C 32.881044 17.355414 33.376523 14.960672 32.199219 13.076172 C 29.929345 13.076172 28.464667 14.632086 27.765625 15.599609 A 10 8 0 0 0 24 15 A 10 8 0 0 0 20.230469 15.59375 C 19.529731 14.625773 18.066226 13.076172 15.800781 13.076172 C 14.449711 15.238817 15.28492 17.564557 15.732422 18.513672 A 10 8 0 0 0 21.681641 30.779297 C 20.3755 31.452483 19.397283 32.674042 19.097656 34.15625 L 17.783203 34.15625 C 16.486203 34.15625 15.98225 33.629234 15.28125 32.740234 C 14.58925 31.851234 13.845172 31.253859 12.951172 31.005859 C 12.469172 30.954859 12.144453 31.321484 12.564453 31.646484 C 13.983453 32.612484 14.081391 34.193516 14.650391 35.228516 C 15.168391 36.160516 16.229687 37 17.429688 37 L 19 37 L 19 40.251953 C 12.043061 38.122519 7 31.66536 7 24 C 7 14.593391 14.593385 7 24 7 z"/></symbol> 
    <symbol id="spotify" xmlns="http://www.w3.org/2000/svg" viewBox="0 0 48 48"><path d="M 24 4 C 12.972066 4 4 12.972074 4 24 C 4 35.027926 12.972066 44 24 44 C 35.027934 44 44 35.027926 44 24 C 44 12.972074 35.027934 4 24 4 z M 24 7 C 33.406615 7 41 14.593391 41 24 C 41 33.406609 33.406615 41 24 41 C 14.593385 41 7 33.406609 7 24 C 7 14.593391 14.593385 7 24 7 z M 21.103516 15.957031 C 20.389873 15.966128 19.676597 15.999862 18.964844 16.058594 C 17.066835 16.215211 15.180218 16.549094 13.332031 17.058594 A 1.50015 1.50015 0 1 0 14.128906 19.949219 C 20.796159 18.111219 28.02435 18.821382 34.261719 22.074219 A 1.50015 1.50015 0 1 0 35.648438 19.414062 C 31.106773 17.045549 26.099015 15.893354 21.103516 15.957031 z M 21.308594 22.009766 C 20.725031 22.014043 20.140835 22.038263 19.558594 22.082031 C 18.005952 22.198747 16.46251 22.455787 14.947266 22.853516 A 1.50015 1.50015 0 1 0 15.708984 25.753906 C 21.062005 24.34882 26.832615 24.930095 31.841797 27.496094 A 1.50015 1.50015 0 1 0 33.208984 24.826172 C 29.483573 22.917796 25.39353 21.979821 21.308594 22.009766 z M 21.546875 28.017578 C 21.101253 28.016517 20.655896 28.029198 20.210938 28.056641 C 19.02438 28.129821 17.84235 28.304165 16.679688 28.580078 A 1.50015 1.50015 0 1 0 17.373047 31.498047 C 21.352394 30.553701 25.596764 30.99901 29.326172 32.830078 A 1.5002142 1.5002142 0 1 0 30.648438 30.136719 C 27.784174 28.73042 24.666231 28.025008 21.546875 28.017578 z"/></symbol> 
    
    <symbol id="map" xmlns="http://www.w3.org/2000/svg" viewBox="0 0 48 48"><path d="M 24 4 C 16.285455 4 10 10.285455 10 18 C 10 21.46372 11.272608 24.643548 13.359375 27.085938 L 13.359375 27.087891 L 13.361328 27.087891 C 13.361328 27.087891 19.149094 33.866566 21.298828 35.917969 C 22.798087 37.348278 25.199464 37.347492 26.699219 35.917969 C 29.129083 33.600994 34.636721 27.090553 34.640625 27.085938 L 34.642578 27.082031 C 36.728766 24.639939 38 21.462159 38 18 C 38 10.285455 31.714545 4 24 4 z M 24 7 C 30.093455 7 35 11.906545 35 18 C 35 20.73228 34.005417 23.211194 32.359375 25.136719 L 32.359375 25.138672 L 32.357422 25.138672 C 32.357422 25.138672 26.632181 31.83589 24.628906 33.746094 C 24.258577 34.099392 23.73947 34.099392 23.369141 33.746094 C 21.715477 32.16807 15.643092 25.141834 15.638672 25.136719 L 15.636719 25.132812 C 13.99327 23.20762 13 20.730712 13 18 C 13 11.906545 17.906545 7 24 7 z M 24 12 C 22.125 12 20.528815 12.757133 19.503906 13.910156 C 18.478997 15.063179 18 16.541667 18 18 C 18 19.458333 18.478997 20.936821 19.503906 22.089844 C 20.528815 23.242867 22.125 24 24 24 C 25.875 24 27.471185 23.242867 28.496094 22.089844 C 29.521003 20.936821 30 19.458333 30 18 C 30 16.541667 29.521003 15.063179 28.496094 13.910156 C 27.471185 12.757133 25.875 12 24 12 z M 24 15 C 25.124999 15 25.778816 15.367867 26.253906 15.902344 C 26.728997 16.436821 27 17.208333 27 18 C 27 18.791667 26.728997 19.563179 26.253906 20.097656 C 25.778816 20.632133 25.124999 21 24 21 C 22.875001 21 22.221184 20.632133 21.746094 20.097656 C 21.271003 19.563179 21 18.791667 21 18 C 21 17.208333 21.271003 16.436821 21.746094 15.902344 C 22.221184 15.367867 22.875001 15 24 15 z M 12.771484 29.441406 C 8.2264844 30.754406 5 32.953 5 36 C 5 41.252 14.558 44 24 44 C 33.442 44 43 41.252 43 36 C 43 32.954 39.775422 30.757359 35.232422 29.443359 C 34.654422 30.099359 33.863187 30.993844 32.992188 31.964844 C 37.418188 33.005844 40 34.691 40 36 C 40 38.039 33.767 41 24 41 C 14.233 41 8 38.039 8 36 C 8 34.69 10.586531 33.001938 15.019531 31.960938 C 14.152531 30.995938 13.355484 30.100406 12.771484 29.441406 z"/></symbol> 
    <symbol id="map-target" xmlns="http://www.w3.org/2000/svg" viewBox="0 0 48 48"><path d="M 23.976562 2.9785156 A 1.50015 1.50015 0 0 0 22.5 4.5 L 22.5 6.0761719 C 13.772732 6.8015194 6.8015188 13.772738 6.0761719 22.5 L 4.5 22.5 A 1.50015 1.50015 0 1 0 4.5 25.5 L 6.0761719 25.5 C 6.8015188 34.227262 13.772732 41.198481 22.5 41.923828 L 22.5 43.5 A 1.50015 1.50015 0 1 0 25.5 43.5 L 25.5 41.923828 C 29.256212 41.611639 32.69151 40.155252 35.441406 37.884766 C 39.080682 34.879953 41.51067 30.471053 41.923828 25.5 L 43.5 25.5 A 1.50015 1.50015 0 0 0 43.650391 25.494141 A 1.50015 1.50015 0 0 0 43.5 22.5 L 41.923828 22.5 C 41.914546 22.388322 41.917571 22.273207 41.90625 22.162109 C 41.35205 16.723757 38.366649 11.992662 34.056641 9.078125 C 31.574145 7.3993984 28.648789 6.3378765 25.5 6.0761719 L 25.5 4.5 A 1.50015 1.50015 0 0 0 23.976562 2.9785156 z M 22.5 9.0761719 L 22.5 10.5 A 1.50015 1.50015 0 1 0 25.5 10.5 L 25.5 9.0761719 C 28.039525 9.3267767 30.390321 10.204159 32.394531 11.556641 C 34.788026 13.171819 36.68774 15.461185 37.824219 18.154297 C 38.392458 19.500853 38.768623 20.947585 38.921875 22.462891 C 38.923108 22.475086 38.922624 22.487796 38.923828 22.5 L 37.5 22.5 A 1.50015 1.50015 0 1 0 37.5 25.5 L 38.923828 25.5 C 38.822864 26.523132 38.623227 27.515268 38.328125 28.466797 C 37.453381 31.287332 35.770129 33.747935 33.548828 35.580078 C 31.327527 37.412221 28.567723 38.61537 25.537109 38.921875 C 25.524914 38.923108 25.512204 38.922624 25.5 38.923828 L 25.5 37.5 A 1.50015 1.50015 0 0 0 23.976562 35.978516 A 1.50015 1.50015 0 0 0 22.5 37.5 L 22.5 38.923828 C 21.982332 38.872744 21.473298 38.7974 20.972656 38.695312 C 14.605941 37.397051 9.7258169 32.083234 9.0761719 25.5 L 10.5 25.5 A 1.50015 1.50015 0 0 0 10.650391 25.494141 A 1.50015 1.50015 0 0 0 10.5 22.5 L 9.0761719 22.5 C 9.0773762 22.487796 9.0768916 22.475086 9.078125 22.462891 C 9.7945366 15.379268 15.411298 9.7756975 22.5 9.0761719 z M 24 19 C 22.458334 19 21.112148 19.632133 20.253906 20.597656 C 19.395664 21.563179 19 22.791667 19 24 C 19 25.208333 19.395664 26.436821 20.253906 27.402344 C 21.112148 28.367867 22.458334 29 24 29 C 25.541666 29 26.887852 28.367867 27.746094 27.402344 C 28.604336 26.436821 29 25.208333 29 24 C 29 22.791667 28.604336 21.563179 27.746094 20.597656 C 26.887852 19.632133 25.541666 19 24 19 z M 24 22 C 24.791666 22 25.195482 22.242867 25.503906 22.589844 C 25.81233 22.936821 26 23.458333 26 24 C 26 24.541667 25.81233 25.063179 25.503906 25.410156 C 25.195482 25.757133 24.791666 26 24 26 C 23.208334 26 22.804518 25.757133 22.496094 25.410156 C 22.18767 25.063179 22 24.541667 22 24 C 22 23.864583 22.01079 23.730095 22.033203 23.599609 C 22.100443 23.208154 22.264776 22.850077 22.496094 22.589844 C 22.804518 22.242867 23.208334 22 24 22 z"/></symbol> 

    <symbol id="email" xmlns="http://www.w3.org/2000/svg" viewBox="0 0 48 48"><path d="M 10.5 8 C 6.9280619 8 4 10.928062 4 14.5 L 4 20.5 A 1.50015 1.50015 0 1 0 7 20.5 L 7 19.015625 L 23.287109 27.820312 A 1.50015 1.50015 0 0 0 24.712891 27.820312 L 41 19.015625 L 41 33.5 C 41 35.450062 39.450062 37 37.5 37 L 26.5 37 A 1.50015 1.50015 0 1 0 26.5 40 L 37.5 40 C 41.071938 40 44 37.071938 44 33.5 L 44 14.5 C 44 10.928062 41.071938 8 37.5 8 L 10.5 8 z M 10.5 11 L 37.5 11 C 39.450062 11 41 12.549938 41 14.5 L 41 15.605469 L 24 24.794922 L 7 15.605469 L 7 14.5 C 7 12.549938 8.5499381 11 10.5 11 z M 3.5 25 A 1.50015 1.50015 0 1 0 3.5 28 L 10.5 28 A 1.50015 1.50015 0 1 0 10.5 25 L 3.5 25 z M 3.5 31 A 1.50015 1.50015 0 1 0 3.5 34 L 15.5 34 A 1.50015 1.50015 0 1 0 15.5 31 L 3.5 31 z M 3.5 37 A 1.50015 1.50015 0 1 0 3.5 40 L 20.5 40 A 1.50015 1.50015 0 1 0 20.5 37 L 3.5 37 z"/></symbol> 
    <symbol id="phone" xmlns="http://www.w3.org/2000/svg" viewBox="0 0 48 48"><path d="M 27.5 4 A 1.50015 1.50015 0 1 0 27.5 7 C 34.973281 7 41 13.026719 41 20.5 A 1.50015 1.50015 0 1 0 44 20.5 C 44 11.405281 36.594719 4 27.5 4 z M 14.041016 4.0136719 C 13.382757 3.9657839 12.708271 4.0330649 12.046875 4.2285156 L 12.044922 4.2285156 L 9.6796875 4.9296875 C 7.157236 5.6756944 5.1863379 7.677075 4.5195312 10.203125 C 3.0389548 15.820868 4.7326768 22.47029 9.140625 29.955078 C 13.542377 37.429539 18.558019 42.179937 24.222656 43.730469 C 26.773641 44.428685 29.524755 43.761709 31.457031 41.966797 L 33.257812 40.296875 C 35.272819 38.425993 35.573265 35.309882 33.945312 33.095703 L 31.34375 29.5625 C 29.949212 27.668344 27.49096 26.861916 25.230469 27.541016 L 21.160156 28.759766 C 20.989301 28.809656 20.580424 28.576963 20.224609 28.269531 L 20.222656 28.267578 C 19.588917 27.716517 18.710863 26.602712 17.771484 25.009766 L 17.771484 25.007812 C 16.764214 23.297093 16.334594 22.17828 16.162109 21.517578 C 15.989545 20.856572 16.031423 20.776164 16.056641 20.552734 C 16.069751 20.441248 16.122721 20.337948 16.212891 20.255859 L 16.214844 20.253906 L 19.25 17.478516 C 20.988893 15.888867 21.513843 13.348513 20.533203 11.210938 L 18.701172 7.21875 L 18.701172 7.2167969 C 17.839566 5.3386971 16.015266 4.1572962 14.041016 4.0136719 z M 13.824219 7.0058594 C 14.742414 7.0744633 15.587933 7.6252174 15.974609 8.46875 L 17.804688 12.460938 C 18.248047 13.427361 18.025717 14.533274 17.224609 15.265625 L 14.191406 18.039062 C 13.569197 18.606386 13.171295 19.379878 13.076172 20.214844 L 13.076172 20.216797 C 13.051392 20.436367 12.992832 21.252897 13.259766 22.275391 C 13.526701 23.297884 14.077817 24.650307 15.185547 26.53125 L 15.1875 26.53125 C 16.221084 28.284258 17.197939 29.616041 18.255859 30.535156 L 18.257812 30.535156 C 18.601374 30.832583 20.041282 32.212607 22 31.640625 L 22.005859 31.638672 L 26.09375 30.414062 C 27.155259 30.095163 28.290273 30.475952 28.927734 31.341797 L 31.529297 34.875 C 32.266003 35.878668 32.13729 37.243002 31.216797 38.097656 L 29.416016 39.769531 C 28.264351 40.839787 26.554167 41.257578 25.013672 40.835938 C 20.434309 39.582469 15.902811 35.525133 11.726562 28.433594 C 7.5445112 21.332382 6.2364984 15.459007 7.4199219 10.96875 C 7.8111153 9.4868 9.0097015 8.2566337 10.53125 7.8066406 L 12.896484 7.1054688 C 13.204589 7.0144199 13.518154 6.9829914 13.824219 7.0058594 z M 27.5 10 A 1.50015 1.50015 0 1 0 27.5 13 C 31.660499 13 35 16.339501 35 20.5 A 1.50015 1.50015 0 1 0 38 20.5 C 38 14.718499 33.281501 10 27.5 10 z M 27.5 16 A 1.50015 1.50015 0 1 0 27.5 19 C 28.346499 19 29 19.653501 29 20.5 A 1.50015 1.50015 0 1 0 32 20.5 C 32 18.032499 29.967501 16 27.5 16 z"/></symbol> 
    <symbol id="telephone" xmlns="http://www.w3.org/2000/svg" viewBox="0 0 48 48"><path d="M 24 5.9960938 C 16.899016 5.9960938 10.052151 7.302281 6.2871094 10.671875 C 4.5200185 12.252489 3.6865968 14.610083 4.0878906 16.904297 L 4.1015625 16.978516 L 4.4101562 18.072266 C 5.0059473 20.572307 7.4082535 22.229383 9.9628906 21.972656 L 9.984375 21.970703 L 12.466797 21.652344 C 12.466797 21.652344 12.46875 21.652344 12.46875 21.652344 C 14.652202 21.433768 16.479726 19.86855 16.976562 17.744141 L 16.941406 17.867188 L 17.619141 15.785156 L 17.634766 15.722656 C 17.650324 15.656102 17.708876 15.590387 17.761719 15.548828 C 17.827557 15.534561 18.095935 15.435009 18.421875 15.376953 C 18.875773 15.296103 19.481565 15.222818 20.134766 15.166016 C 21.441025 15.052549 22.948114 15 24 15 C 25.051886 15 26.559072 15.0523 27.865234 15.166016 C 28.518316 15.222876 29.124543 15.296016 29.578125 15.376953 C 29.905332 15.435342 30.17467 15.53541 30.238281 15.548828 C 30.290654 15.591132 30.348863 15.660565 30.363281 15.722656 L 30.378906 15.785156 L 31.056641 17.867188 L 31.021484 17.744141 C 31.518464 19.869157 33.348924 21.434475 35.533203 21.652344 L 35.490234 21.648438 L 38.015625 21.972656 L 38.035156 21.974609 C 40.590683 22.232687 42.992391 20.574463 43.587891 18.074219 L 43.898438 16.978516 L 43.910156 16.904297 C 44.311501 14.609401 43.476549 12.254255 41.710938 10.673828 C 37.946717 7.3027252 31.100984 5.9960938 24 5.9960938 z M 24 8.9960938 C 30.681016 8.9960938 37.117158 10.585306 39.710938 12.908203 C 40.723469 13.814535 41.164837 15.11074 40.953125 16.365234 L 40.677734 17.349609 L 40.669922 17.378906 C 40.429718 18.387417 39.426768 19.098001 38.339844 18.990234 L 35.851562 18.669922 L 35.830078 18.667969 C 34.886341 18.573882 34.14238 17.911531 33.943359 17.060547 L 33.929688 17 L 33.251953 14.917969 L 33.285156 15.042969 C 33.080195 14.160344 32.535761 13.414412 31.763672 12.951172 C 31.763672 12.951172 31.761719 12.951172 31.761719 12.951172 C 31.155824 12.586006 30.698876 12.529715 30.105469 12.423828 C 29.511426 12.317828 28.835919 12.239627 28.125 12.177734 C 26.703212 12.053949 25.149114 12 24 12 C 22.850886 12 21.296848 12.05409 19.875 12.177734 C 19.164076 12.239554 18.488539 12.318022 17.894531 12.423828 C 17.301996 12.529372 16.844299 12.584938 16.240234 12.947266 C 15.46552 13.409865 14.919096 14.159117 14.712891 15.041016 L 14.748047 14.917969 L 14.070312 16.998047 L 14.054688 17.060547 C 13.855666 17.911531 13.11169 18.571885 12.167969 18.666016 L 12.146484 18.667969 L 9.6621094 18.988281 C 8.5747435 19.097508 7.5702872 18.384912 7.3300781 17.376953 L 7.3222656 17.347656 L 7.0449219 16.363281 C 6.8338955 15.108871 7.2745811 13.813882 8.2871094 12.908203 L 8.2890625 12.908203 C 10.884022 10.5858 17.318984 8.9960937 24 8.9960938 z M 21.476562 16.978516 A 1.50015 1.50015 0 0 0 20 18.5 L 20 20.572266 L 15.431641 22.857422 C 10.266005 25.439131 7 30.726016 7 36.5 C 7 39.519774 9.4802259 42 12.5 42 L 35.5 42 C 38.519774 42 41 39.519774 41 36.5 C 41 30.725824 37.732533 25.440063 32.568359 22.857422 L 28 20.572266 L 28 18.5 A 1.50015 1.50015 0 1 0 25 18.5 L 25 20 L 23 20 L 23 18.5 A 1.50015 1.50015 0 0 0 21.476562 16.978516 z M 21.855469 23 L 26.144531 23 L 31.226562 25.541016 C 35.380389 27.618375 38 31.856176 38 36.5 C 38 37.898226 36.898226 39 35.5 39 L 12.5 39 C 11.101774 39 10 37.898226 10 36.5 C 10 31.855984 12.619074 27.617306 16.773438 25.541016 L 21.855469 23 z M 18.5 28 A 1.5 1.5 0 0 0 18.5 31 A 1.5 1.5 0 0 0 18.5 28 z M 24 28 A 1.5 1.5 0 0 0 24 31 A 1.5 1.5 0 0 0 24 28 z M 29.5 28 A 1.5 1.5 0 0 0 29.5 31 A 1.5 1.5 0 0 0 29.5 28 z M 18.5 33 A 1.5 1.5 0 0 0 18.5 36 A 1.5 1.5 0 0 0 18.5 33 z M 24 33 A 1.5 1.5 0 0 0 24 36 A 1.5 1.5 0 0 0 24 33 z M 29.5 33 A 1.5 1.5 0 0 0 29.5 36 A 1.5 1.5 0 0 0 29.5 33 z"/></symbol> 
    <symbol id="cellphone" xmlns="http://www.w3.org/2000/svg" viewBox="0 0 48 48"><path d="M 10.5 4 C 8.0324991 4 6 6.0324991 6 8.5 L 6 39.5 C 6 41.967501 8.0324991 44 10.5 44 L 25.5 44 C 27.967501 44 30 41.967501 30 39.5 L 30 8.5 C 30 6.0324991 27.967501 4 25.5 4 L 10.5 4 z M 10.5 7 L 25.5 7 C 26.346499 7 27 7.6535009 27 8.5 L 27 39.5 C 27 40.346499 26.346499 41 25.5 41 L 10.5 41 C 9.6535009 41 9 40.346499 9 39.5 L 9 8.5 C 9 7.6535009 9.6535009 7 10.5 7 z M 39.541016 13.796875 A 1.50015 1.50015 0 0 0 38.150391 15.96875 C 39.330154 18.401433 40 21.116991 40 24 C 40 26.883009 39.330154 29.598567 38.150391 32.03125 A 1.50015 1.50015 0 1 0 40.849609 33.339844 C 42.217846 30.518527 43 27.348991 43 24 C 43 20.651009 42.217846 17.481473 40.849609 14.660156 A 1.50015 1.50015 0 0 0 39.541016 13.796875 z M 34.496094 17.394531 A 1.50015 1.50015 0 0 0 33.107422 19.472656 C 33.675221 20.885427 34 22.401663 34 24 C 34 25.598337 33.675221 27.114573 33.107422 28.527344 A 1.5004333 1.5004333 0 1 0 35.892578 29.644531 C 36.590779 27.907302 37 26.005663 37 24 C 37 21.994337 36.590779 20.092698 35.892578 18.355469 A 1.50015 1.50015 0 0 0 34.496094 17.394531 z M 15.5 35 A 1.50015 1.50015 0 1 0 15.5 38 L 20.5 38 A 1.50015 1.50015 0 1 0 20.5 35 L 15.5 35 z"/></symbol> 
    <symbol id="fax" xmlns="http://www.w3.org/2000/svg" viewBox="0 0 48 48"><path d="M 9.5 6 C 7.5850452 6 6 7.5850452 6 9.5 L 6 36.5 C 6 38.414955 7.5850452 40 9.5 40 L 12 40 L 12 41.5 C 12 43.967501 14.032499 46 16.5 46 L 20.5 46 C 22.967501 46 25 43.967501 25 41.5 L 25 40 L 38.5 40 C 40.414955 40 42 38.414955 42 36.5 L 42 9.5 C 42 7.5850452 40.414955 6 38.5 6 L 9.5 6 z M 9.5 9 L 17.029297 9 L 17.029297 37 L 9.5 37 C 9.2049548 37 9 36.795045 9 36.5 L 9 9.5 C 9 9.2049548 9.2049548 9 9.5 9 z M 20.029297 9 L 38.5 9 C 38.795045 9 39 9.2049548 39 9.5 L 39 36.5 C 39 36.795045 38.795045 37 38.5 37 L 20.029297 37 L 20.029297 9 z M 24.5 13 A 1.50015 1.50015 0 1 0 24.5 16 L 34.5 16 A 1.50015 1.50015 0 1 0 34.5 13 L 24.5 13 z M 24.5 21 A 1.5 1.5 0 0 0 24.5 24 A 1.5 1.5 0 0 0 24.5 21 z M 29.5 21 A 1.5 1.5 0 0 0 29.5 24 A 1.5 1.5 0 0 0 29.5 21 z M 34.5 21 A 1.5 1.5 0 0 0 34.5 24 A 1.5 1.5 0 0 0 34.5 21 z M 24.5 26 A 1.5 1.5 0 0 0 24.5 29 A 1.5 1.5 0 0 0 24.5 26 z M 29.5 26 A 1.5 1.5 0 0 0 29.5 29 A 1.5 1.5 0 0 0 29.5 26 z M 34.5 26 A 1.5 1.5 0 0 0 34.5 29 A 1.5 1.5 0 0 0 34.5 26 z M 24.5 31 A 1.5 1.5 0 0 0 24.5 34 A 1.5 1.5 0 0 0 24.5 31 z M 29.5 31 A 1.5 1.5 0 0 0 29.5 34 A 1.5 1.5 0 0 0 29.5 31 z M 34.5 31 A 1.5 1.5 0 0 0 34.5 34 A 1.5 1.5 0 0 0 34.5 31 z M 15 40 L 22 40 L 22 41.5 C 22 42.346499 21.346499 43 20.5 43 L 16.5 43 C 15.653501 43 15 42.346499 15 41.5 L 15 40 z"/></symbol> 

    <symbol id="photo-camera" xmlns="http://www.w3.org/2000/svg" viewBox="0 0 48 48"><path d="M 10.5 5 C 9.671 5 9 5.671 9 6.5 L 9 7.1835938 C 6.1450231 7.8673225 4 10.444794 4 13.5 L 4 34.5 C 4 38.071938 6.9280619 41 10.5 41 L 37.5 41 C 41.071938 41 44 38.071938 44 34.5 L 44 13.5 C 44 9.9280619 41.071938 7 37.5 7 L 19 7 L 19 6.5 C 19 5.671 18.329 5 17.5 5 L 10.5 5 z M 10.5 10 L 37.5 10 C 39.450062 10 41 11.549938 41 13.5 L 41 34.5 C 41 36.450062 39.450062 38 37.5 38 L 10.5 38 C 8.5499381 38 7 36.450062 7 34.5 L 7 13.5 C 7 11.549938 8.5499381 10 10.5 10 z M 12.5 15 A 1.50015 1.50015 0 1 0 12.5 18 L 15.5 18 A 1.50015 1.50015 0 1 0 15.5 15 L 12.5 15 z M 28 15 C 23.047202 15 19 19.047206 19 24 C 19 28.952794 23.047202 33 28 33 C 32.952798 33 37 28.952794 37 24 C 37 19.047206 32.952798 15 28 15 z M 28 18 C 31.331479 18 34 20.668523 34 24 C 34 27.331477 31.331479 30 28 30 C 24.668521 30 22 27.331477 22 24 C 22 20.668523 24.668521 18 28 18 z"/></symbol> 
    <symbol id="video-camera" xmlns="http://www.w3.org/2000/svg" viewBox="0 0 48 48"><path d="M 20.742188 6 C 19.549202 6 18.403754 6.4731993 17.560547 7.3164062 L 15.025391 9.8535156 C 14.369434 10.509473 14 11.400012 14 12.328125 L 14 13 L 6.5 13 C 3.4802259 13 1 15.480226 1 18.5 L 1 36.5 C 1 39.519774 3.4802259 42 6.5 42 L 32.5 42 C 35.519774 42 38 39.519774 38 36.5 L 38 34.302734 L 44.667969 38.748047 A 1.50015 1.50015 0 0 0 47 37.5 L 47 17.5 A 1.50015 1.50015 0 0 0 45.455078 16 A 1.50015 1.50015 0 0 0 44.667969 16.251953 L 38 20.697266 L 38 18.5 C 38 15.480226 35.519774 13 32.5 13 L 30 13 L 30 8.5 C 30 7.1364058 28.863594 6 27.5 6 L 20.742188 6 z M 32 8 L 32 11 L 36.5 11 C 37.329 11 38 10.328 38 9.5 C 38 8.672 37.329 8 36.5 8 L 32 8 z M 20.742188 9 L 27 9 L 27 13 L 17 13 L 17 12.328125 C 17 12.196238 17.05244 12.068652 17.146484 11.974609 L 19.683594 9.4394531 C 19.964387 9.1586602 20.343172 9 20.742188 9 z M 6.5 16 L 14 16 L 17 16 L 27 16 L 30 16 L 32.5 16 C 33.898226 16 35 17.101774 35 18.5 L 35 23.5 L 35 31.5 L 35 36.5 C 35 37.898226 33.898226 39 32.5 39 L 6.5 39 C 5.1017741 39 4 37.898226 4 36.5 L 4 18.5 C 4 17.101774 5.1017741 16 6.5 16 z M 8.5 19 A 1.50015 1.50015 0 0 0 7 20.5 L 7 26.5 A 1.50015 1.50015 0 0 0 8.5 28 L 17.5 28 A 1.50015 1.50015 0 0 0 19 26.5 L 19 20.5 A 1.50015 1.50015 0 0 0 17.5 19 L 8.5 19 z M 44 20.302734 L 44 34.697266 L 38 30.697266 L 38 24.302734 L 44 20.302734 z M 10 22 L 16 22 L 16 25 L 10 25 L 10 22 z"/></symbol> 
    <symbol id="video" xmlns="http://www.w3.org/2000/svg" viewBox="0 0 48 48"><path d="M 8.5 7 C 5.4802259 7 3 9.4802259 3 12.5 L 3 35.5 C 3 38.519774 5.4802259 41 8.5 41 L 39.5 41 C 42.519774 41 45 38.519774 45 35.5 L 45 12.5 C 45 9.4802259 42.519774 7 39.5 7 L 8.5 7 z M 8.5 10 L 39.5 10 C 40.898226 10 42 11.101774 42 12.5 L 42 35.5 C 42 36.898226 40.898226 38 39.5 38 L 8.5 38 C 7.1017741 38 6 36.898226 6 35.5 L 6 12.5 C 6 11.101774 7.1017741 10 8.5 10 z M 8.5 12 C 7.948 12 7.5 12.448 7.5 13 L 7.5 14 C 7.5 14.552 7.948 15 8.5 15 L 9.5 15 C 10.052 15 10.5 14.552 10.5 14 L 10.5 13 C 10.5 12.448 10.052 12 9.5 12 L 8.5 12 z M 14.5 12 C 13.948 12 13.5 12.448 13.5 13 L 13.5 14 C 13.5 14.552 13.948 15 14.5 15 L 15.5 15 C 16.052 15 16.5 14.552 16.5 14 L 16.5 13 C 16.5 12.448 16.052 12 15.5 12 L 14.5 12 z M 20.5 12 C 19.948 12 19.5 12.448 19.5 13 L 19.5 14 C 19.5 14.552 19.948 15 20.5 15 L 21.5 15 C 22.052 15 22.5 14.552 22.5 14 L 22.5 13 C 22.5 12.448 22.052 12 21.5 12 L 20.5 12 z M 26.5 12 C 25.948 12 25.5 12.448 25.5 13 L 25.5 14 C 25.5 14.552 25.948 15 26.5 15 L 27.5 15 C 28.052 15 28.5 14.552 28.5 14 L 28.5 13 C 28.5 12.448 28.052 12 27.5 12 L 26.5 12 z M 32.5 12 C 31.948 12 31.5 12.448 31.5 13 L 31.5 14 C 31.5 14.552 31.948 15 32.5 15 L 33.5 15 C 34.052 15 34.5 14.552 34.5 14 L 34.5 13 C 34.5 12.448 34.052 12 33.5 12 L 32.5 12 z M 38.5 12 C 37.948 12 37.5 12.448 37.5 13 L 37.5 14 C 37.5 14.552 37.948 15 38.5 15 L 39.5 15 C 40.052 15 40.5 14.552 40.5 14 L 40.5 13 C 40.5 12.448 40.052 12 39.5 12 L 38.5 12 z M 20.738281 18 C 20.437281 18.001875 20.137141 18.081781 19.869141 18.238281 C 19.331141 18.551281 19 19.127 19 19.75 L 19 28.25 C 19 28.873 19.331141 29.448719 19.869141 29.761719 C 20.141141 29.919719 20.445 30 20.75 30 C 21.048 30 21.344328 29.924484 21.611328 29.771484 L 29.111328 25.521484 C 29.660328 25.211484 30 24.63 30 24 C 30 23.37 29.660328 22.788516 29.111328 22.478516 L 21.611328 18.228516 C 21.340328 18.074516 21.039281 17.998125 20.738281 18 z M 8.5 33 C 7.948 33 7.5 33.448 7.5 34 L 7.5 35 C 7.5 35.552 7.948 36 8.5 36 L 9.5 36 C 10.052 36 10.5 35.552 10.5 35 L 10.5 34 C 10.5 33.448 10.052 33 9.5 33 L 8.5 33 z M 14.5 33 C 13.948 33 13.5 33.448 13.5 34 L 13.5 35 C 13.5 35.552 13.948 36 14.5 36 L 15.5 36 C 16.052 36 16.5 35.552 16.5 35 L 16.5 34 C 16.5 33.448 16.052 33 15.5 33 L 14.5 33 z M 20.5 33 C 19.948 33 19.5 33.448 19.5 34 L 19.5 35 C 19.5 35.552 19.948 36 20.5 36 L 21.5 36 C 22.052 36 22.5 35.552 22.5 35 L 22.5 34 C 22.5 33.448 22.052 33 21.5 33 L 20.5 33 z M 26.5 33 C 25.948 33 25.5 33.448 25.5 34 L 25.5 35 C 25.5 35.552 25.948 36 26.5 36 L 27.5 36 C 28.052 36 28.5 35.552 28.5 35 L 28.5 34 C 28.5 33.448 28.052 33 27.5 33 L 26.5 33 z M 32.5 33 C 31.948 33 31.5 33.448 31.5 34 L 31.5 35 C 31.5 35.552 31.948 36 32.5 36 L 33.5 36 C 34.052 36 34.5 35.552 34.5 35 L 34.5 34 C 34.5 33.448 34.052 33 33.5 33 L 32.5 33 z M 38.5 33 C 37.948 33 37.5 33.448 37.5 34 L 37.5 35 C 37.5 35.552 37.948 36 38.5 36 L 39.5 36 C 40.052 36 40.5 35.552 40.5 35 L 40.5 34 C 40.5 33.448 40.052 33 39.5 33 L 38.5 33 z"/></symbol> 
    <symbol id="photo" xmlns="http://www.w3.org/2000/svg" viewBox="0 0 48 48"><path d="M 11.5 6 C 8.4802259 6 6 8.4802259 6 11.5 L 6 36.5 C 6 39.519774 8.4802259 42 11.5 42 L 36.5 42 C 39.519774 42 42 39.519774 42 36.5 L 42 11.5 C 42 8.4802259 39.519774 6 36.5 6 L 11.5 6 z M 11.5 9 L 36.5 9 C 37.898226 9 39 10.101774 39 11.5 L 39 31.955078 L 32.988281 26.138672 A 1.50015 1.50015 0 0 0 32.986328 26.136719 C 32.208234 25.385403 31.18685 25 30.173828 25 C 29.16122 25 28.13988 25.385387 27.361328 26.138672 L 25.3125 28.121094 L 19.132812 22.142578 C 18.35636 21.389748 17.336076 21 16.318359 21 C 15.299078 21 14.280986 21.392173 13.505859 22.140625 A 1.50015 1.50015 0 0 0 13.503906 22.142578 L 9 26.5 L 9 11.5 C 9 10.101774 10.101774 9 11.5 9 z M 30.5 13 C 29.125 13 27.903815 13.569633 27.128906 14.441406 C 26.353997 15.313179 26 16.416667 26 17.5 C 26 18.583333 26.353997 19.686821 27.128906 20.558594 C 27.903815 21.430367 29.125 22 30.5 22 C 31.875 22 33.096185 21.430367 33.871094 20.558594 C 34.646003 19.686821 35 18.583333 35 17.5 C 35 16.416667 34.646003 15.313179 33.871094 14.441406 C 33.096185 13.569633 31.875 13 30.5 13 z M 30.5 16 C 31.124999 16 31.403816 16.180367 31.628906 16.433594 C 31.853997 16.686821 32 17.083333 32 17.5 C 32 17.916667 31.853997 18.313179 31.628906 18.566406 C 31.403816 18.819633 31.124999 19 30.5 19 C 29.875001 19 29.596184 18.819633 29.371094 18.566406 C 29.146003 18.313179 29 17.916667 29 17.5 C 29 17.083333 29.146003 16.686821 29.371094 16.433594 C 29.596184 16.180367 29.875001 16 30.5 16 z M 16.318359 24 C 16.578643 24 16.835328 24.09366 17.044922 24.296875 A 1.50015 1.50015 0 0 0 17.046875 24.298828 L 23.154297 30.207031 L 14.064453 39 L 11.5 39 C 10.101774 39 9 37.898226 9 36.5 L 9 30.673828 L 15.589844 24.298828 C 15.802764 24.093234 16.059641 24 16.318359 24 z M 30.173828 28 C 30.438806 28 30.692485 28.09229 30.902344 28.294922 L 39 36.128906 L 39 36.5 C 39 37.898226 37.898226 39 36.5 39 L 18.380859 39 L 29.447266 28.294922 C 29.654714 28.094207 29.910436 28 30.173828 28 z"/></symbol> 

    <symbol id="date" xmlns="http://www.w3.org/2000/svg" viewBox="0 0 48 48"><path d="M 12.5 6 C 8.9280619 6 6 8.9280619 6 12.5 L 6 35.5 C 6 39.071938 8.9280619 42 12.5 42 L 35.5 42 C 39.071938 42 42 39.071938 42 35.5 L 42 12.5 C 42 8.9280619 39.071938 6 35.5 6 L 12.5 6 z M 12.5 9 L 35.5 9 C 37.450062 9 39 10.549938 39 12.5 L 39 14 L 9 14 L 9 12.5 C 9 10.549938 10.549938 9 12.5 9 z M 9 17 L 39 17 L 39 35.5 C 39 37.450062 37.450062 39 35.5 39 L 12.5 39 C 10.549938 39 9 37.450062 9 35.5 L 9 17 z M 15.5 21 A 2.5 2.5 0 0 0 15.5 26 A 2.5 2.5 0 0 0 15.5 21 z M 24 21 A 2.5 2.5 0 0 0 24 26 A 2.5 2.5 0 0 0 24 21 z M 32.5 21 A 2.5 2.5 0 0 0 32.5 26 A 2.5 2.5 0 0 0 32.5 21 z M 15.5 30 A 2.5 2.5 0 0 0 15.5 35 A 2.5 2.5 0 0 0 15.5 30 z M 24 30 A 2.5 2.5 0 0 0 24 35 A 2.5 2.5 0 0 0 24 30 z"/></symbol> 
    <symbol id="time" xmlns="http://www.w3.org/2000/svg" viewBox="0 0 48 48"><path d="M 24 4 C 12.972066 4 4 12.972074 4 24 C 4 35.027926 12.972066 44 24 44 C 35.027934 44 44 35.027926 44 24 C 44 12.972074 35.027934 4 24 4 z M 24 7 C 33.406615 7 41 14.593391 41 24 C 41 33.406609 33.406615 41 24 41 C 14.593385 41 7 33.406609 7 24 C 7 14.593391 14.593385 7 24 7 z M 22.476562 11.978516 A 1.50015 1.50015 0 0 0 21 13.5 L 21 24.5 A 1.50015 1.50015 0 0 0 21.439453 25.560547 L 26.439453 30.560547 A 1.50015 1.50015 0 1 0 28.560547 28.439453 L 24 23.878906 L 24 13.5 A 1.50015 1.50015 0 0 0 22.476562 11.978516 z"/></symbol> 


    <symbol id="arrow-down" xmlns="http://www.w3.org/2000/svg" viewBox="0 0 48 48"><path d="M 24.476562 5.9785156 A 1.50015 1.50015 0 0 0 23 7.5 L 23 36.878906 L 11.560547 25.439453 A 1.50015 1.50015 0 1 0 9.4394531 27.560547 L 23.439453 41.560547 A 1.50015 1.50015 0 0 0 25.560547 41.560547 L 39.560547 27.560547 A 1.50015 1.50015 0 1 0 37.439453 25.439453 L 26 36.878906 L 26 7.5 A 1.50015 1.50015 0 0 0 24.476562 5.9785156 z"/></symbol> 
    <symbol id="arrow-up" xmlns="http://www.w3.org/2000/svg" viewBox="0 0 48 48"><path d="M 23.478516 6 A 1.50015 1.50015 0 0 0 22.439453 6.4394531 L 8.4394531 20.439453 A 1.50015 1.50015 0 1 0 10.560547 22.560547 L 22 11.121094 L 22 40.5 A 1.50015 1.50015 0 1 0 25 40.5 L 25 11.121094 L 36.439453 22.560547 A 1.50015 1.50015 0 1 0 38.560547 20.439453 L 24.560547 6.4394531 A 1.50015 1.50015 0 0 0 23.478516 6 z"/></symbol> 
    <symbol id="arrow-right" xmlns="http://www.w3.org/2000/svg" viewBox="0 0 48 48"><path d="M 26.484375 8.984375 A 1.50015 1.50015 0 0 0 25.439453 11.560547 L 36.878906 23 L 7.5 23 A 1.50015 1.50015 0 1 0 7.5 26 L 36.878906 26 L 25.439453 37.439453 A 1.50015 1.50015 0 1 0 27.560547 39.560547 L 41.560547 25.560547 A 1.50015 1.50015 0 0 0 41.560547 23.439453 L 27.560547 9.4394531 A 1.50015 1.50015 0 0 0 26.484375 8.984375 z"/></symbol> 
    <symbol id="arrow-left" xmlns="http://www.w3.org/2000/svg" viewBox="0 0 48 48"><path d="M 21.470703 8.9863281 A 1.50015 1.50015 0 0 0 20.439453 9.4394531 L 6.4394531 23.439453 A 1.50015 1.50015 0 0 0 6.4394531 25.560547 L 20.439453 39.560547 A 1.50015 1.50015 0 1 0 22.560547 37.439453 L 11.121094 26 L 40.5 26 A 1.50015 1.50015 0 1 0 40.5 23 L 11.121094 23 L 22.560547 11.560547 A 1.50015 1.50015 0 0 0 21.470703 8.9863281 z"/></symbol> 

    <symbol id="arrow-solid-right" xmlns="http://www.w3.org/2000/svg" viewBox="0 0 48 48"><path d="M 18.484375 2.984375 A 1.50015 1.50015 0 0 0 17.439453 5.5605469 L 35.878906 24 L 17.439453 42.439453 A 1.50015 1.50015 0 1 0 19.560547 44.560547 L 39.060547 25.060547 A 1.50015 1.50015 0 0 0 39.060547 22.939453 L 19.560547 3.4394531 A 1.50015 1.50015 0 0 0 18.484375 2.984375 z"/></symbol> 
    <symbol id="arrow-solid-down" xmlns="http://www.w3.org/2000/svg" viewBox="0 0 48 48"><path d="M 43.486328 11.978516 A 1.50015 1.50015 0 0 0 42.439453 12.439453 L 24 30.878906 L 5.5605469 12.439453 A 1.50015 1.50015 0 0 0 4.484375 11.984375 A 1.50015 1.50015 0 0 0 3.4394531 14.560547 L 22.939453 34.060547 A 1.50015 1.50015 0 0 0 25.060547 34.060547 L 44.560547 14.560547 A 1.50015 1.50015 0 0 0 43.486328 11.978516 z"/></symbol> 
    <symbol id="arrow-solid-up" xmlns="http://www.w3.org/2000/svg" viewBox="0 0 48 48"><path d="M 23.978516 11.5 A 1.50015 1.50015 0 0 0 22.939453 11.939453 L 3.4394531 31.439453 A 1.50015 1.50015 0 1 0 5.5605469 33.560547 L 24 15.121094 L 42.439453 33.560547 A 1.50015 1.50015 0 1 0 44.560547 31.439453 L 25.060547 11.939453 A 1.50015 1.50015 0 0 0 23.978516 11.5 z"/></symbol> 
    <symbol id="arrow-solid-left" xmlns="http://www.w3.org/2000/svg" viewBox="0 0 48 48"><path d="M 34.470703 2.9863281 A 1.50015 1.50015 0 0 0 33.439453 3.4394531 L 13.939453 22.939453 A 1.50015 1.50015 0 0 0 13.939453 25.060547 L 33.439453 44.560547 A 1.50015 1.50015 0 1 0 35.560547 42.439453 L 17.121094 24 L 35.560547 5.5605469 A 1.50015 1.50015 0 0 0 34.470703 2.9863281 z"/></symbol> 

    <symbol id="arrow-circled-up" xmlns="http://www.w3.org/2000/svg" viewBox="0 0 48 48"><path d="M 24 4 C 12.972066 4 4 12.972074 4 24 C 4 35.027926 12.972066 44 24 44 C 35.027934 44 44 35.027926 44 24 C 44 12.972074 35.027934 4 24 4 z M 24 7 C 33.406615 7 41 14.593391 41 24 C 41 33.406609 33.406615 41 24 41 C 14.593385 41 7 33.406609 7 24 C 7 14.593391 14.593385 7 24 7 z M 23.978516 18 A 1.50015 1.50015 0 0 0 22.939453 18.439453 L 14.939453 26.439453 A 1.50015 1.50015 0 1 0 17.060547 28.560547 L 24 21.621094 L 30.939453 28.560547 A 1.50015 1.50015 0 1 0 33.060547 26.439453 L 25.060547 18.439453 A 1.50015 1.50015 0 0 0 23.978516 18 z"/></symbol> 
    <symbol id="arrow-circled-right" xmlns="http://www.w3.org/2000/svg" viewBox="0 0 48 48"><path d="M 24 4 C 12.972066 4 4 12.972074 4 24 C 4 35.027926 12.972066 44 24 44 C 35.027934 44 44 35.027926 44 24 C 44 12.972074 35.027934 4 24 4 z M 24 7 C 33.406615 7 41 14.593391 41 24 C 41 33.406609 33.406615 41 24 41 C 14.593385 41 7 33.406609 7 24 C 7 14.593391 14.593385 7 24 7 z M 19.984375 13.984375 A 1.50015 1.50015 0 0 0 18.939453 16.560547 L 25.878906 23.5 L 18.939453 30.439453 A 1.50015 1.50015 0 1 0 21.060547 32.560547 L 29.060547 24.560547 A 1.50015 1.50015 0 0 0 29.060547 22.439453 L 21.060547 14.439453 A 1.50015 1.50015 0 0 0 19.984375 13.984375 z"/></symbol> 
    <symbol id="arrow-circled-down" xmlns="http://www.w3.org/2000/svg" viewBox="0 0 48 48"><path d="M 24 4 C 12.972066 4 4 12.972074 4 24 C 4 35.027926 12.972066 44 24 44 C 35.027934 44 44 35.027926 44 24 C 44 12.972074 35.027934 4 24 4 z M 24 7 C 33.406615 7 41 14.593391 41 24 C 41 33.406609 33.406615 41 24 41 C 14.593385 41 7 33.406609 7 24 C 7 14.593391 14.593385 7 24 7 z M 31.986328 18.978516 A 1.50015 1.50015 0 0 0 30.939453 19.439453 L 24 26.378906 L 17.060547 19.439453 A 1.50015 1.50015 0 0 0 15.984375 18.984375 A 1.50015 1.50015 0 0 0 14.939453 21.560547 L 22.939453 29.560547 A 1.50015 1.50015 0 0 0 25.060547 29.560547 L 33.060547 21.560547 A 1.50015 1.50015 0 0 0 31.986328 18.978516 z"/></symbol> 
    <symbol id="arrow-circled-left" xmlns="http://www.w3.org/2000/svg" viewBox="0 0 48 48"><path d="M 24 4 C 12.972066 4 4 12.972074 4 24 C 4 35.027926 12.972066 44 24 44 C 35.027934 44 44 35.027926 44 24 C 44 12.972074 35.027934 4 24 4 z M 24 7 C 33.406615 7 41 14.593391 41 24 C 41 33.406609 33.406615 41 24 41 C 14.593385 41 7 33.406609 7 24 C 7 14.593391 14.593385 7 24 7 z M 26.470703 13.986328 A 1.50015 1.50015 0 0 0 25.439453 14.439453 L 17.439453 22.439453 A 1.50015 1.50015 0 0 0 17.439453 24.560547 L 25.439453 32.560547 A 1.50015 1.50015 0 1 0 27.560547 30.439453 L 20.621094 23.5 L 27.560547 16.560547 A 1.50015 1.50015 0 0 0 26.470703 13.986328 z"/></symbol> 

    <symbol id="arrow-triangle-bottom" xmlns="http://www.w3.org/2000/svg" viewBox="0 0 48 48"><path d="M38.5,13h-29c-0.57,0-1.092,0.323-1.345,0.835c-0.253,0.511-0.193,1.122,0.152,1.575l14.5,19 C23.092,34.782,23.532,35,24,35s0.908-0.218,1.192-0.59l14.5-19c0.346-0.453,0.405-1.064,0.152-1.575 C39.592,13.323,39.07,13,38.5,13z"/></symbol>
    <symbol id="arrow-triangle-left" xmlns="http://www.w3.org/2000/svg" viewBox="0 0 48 48"><path d="M13,24c0,0.468,0.218,0.908,0.59,1.192l19,14.5C32.856,39.896,33.177,40,33.5,40c0.227,0,0.454-0.052,0.665-0.155 C34.677,39.592,35,39.07,35,38.5v-29c0-0.57-0.323-1.092-0.835-1.345c-0.513-0.253-1.122-0.193-1.575,0.152l-19,14.5 C13.218,23.092,13,23.532,13,24z"/></symbol>
    <symbol id="arrow-triangle-up" xmlns="http://www.w3.org/2000/svg" viewBox="0 0 48 48"><path d="M39.845,34.165c0.253-0.511,0.193-1.122-0.152-1.575l-14.5-19c-0.568-0.744-1.816-0.744-2.385,0l-14.5,19 c-0.346,0.453-0.405,1.064-0.152,1.575C8.408,34.677,8.93,35,9.5,35h29C39.07,35,39.592,34.677,39.845,34.165z"/></symbol>
    <symbol id="arrow-triangle-right" xmlns="http://www.w3.org/2000/svg" viewBox="0 0 48 48"><path d="M13.835,8.155C13.323,8.408,13,8.93,13,9.5v29c0,0.57,0.323,1.092,0.835,1.345C14.046,39.949,14.273,40,14.5,40 c0.323,0,0.644-0.104,0.91-0.308l19-14.5C34.782,24.908,35,24.468,35,24s-0.218-0.908-0.59-1.192l-19-14.5 C14.957,7.962,14.347,7.904,13.835,8.155z"/></symbol>
    <symbol id="arrow-triangle-sort" xmlns="http://www.w3.org/2000/svg" viewBox="0 0 48 48"><path d="M25.037 8.416c-.579-.555-1.494-.555-2.073 0l-11.5 11c-.443.424-.583 1.074-.355 1.643S11.887 22 12.5 22h23c.612 0 1.164-.373 1.393-.941.228-.568.087-1.219-.355-1.643L25.037 8.416zM35.5 26h-23c-.613 0-1.164.373-1.392.941s-.087 1.219.355 1.643l11.5 11C23.253 39.861 23.626 40 24 40s.747-.139 1.037-.416l11.5-11c.442-.424.583-1.074.355-1.643C36.664 26.373 36.112 26 35.5 26z"/></symbol>

    <symbol id="arrow-caret-left" xmlns="http://www.w3.org/2000/svg" viewBox="0 0 24 24"><path d="M 13 5.9296875 L 6.9296875 12 L 13 18.070312 L 14.5 16.570312 L 9.9296875 12 L 14.5 7.4296875 L 13 5.9296875 z"/></symbol>
    <symbol id="arrow-caret-up" xmlns="http://www.w3.org/2000/svg" viewBox="0 0 24 24"><path d="M 12 6.9296875 L 5.9296875 13 L 7.4296875 14.5 L 12 9.9296875 L 16.570312 14.5 L 18.070312 13 L 12 6.9296875 z"/></symbol>
    <symbol id="arrow-caret-down" xmlns="http://www.w3.org/2000/svg" viewBox="0 0 24 24"><path d="M 7.4296875 9.5 L 5.9296875 11 L 12 17.070312 L 18.070312 11 L 16.570312 9.5 L 12 14.070312 L 7.4296875 9.5 z"/></symbol>
    <symbol id="arrow-caret-right" xmlns="http://www.w3.org/2000/svg" viewBox="0 0 24 24"><path d="M 10 5.9296875 L 8.5 7.4296875 L 13.070312 12 L 8.5 16.570312 L 10 18.070312 L 16.070312 12 L 10 5.9296875 z"/></symbol>

</svg> 